{
  "accessors": [
    {
      "bufferView": 0,
      "componentType": 5125,
      "count": 2634,
      "type": "SCALAR"
    },
    {
      "bufferView": 1,
      "componentType": 5126,
      "count": 922,
      "max": [
        0.0218420028686523,
        0.0281055420637131,
        0.942052125930786
      ],
      "min": [
        -0.0230008959770203,
        -0.0675954222679138,
        -0.0246586203575134
      ],
      "type": "VEC3"
    },
    {
      "bufferView": 2,
      "componentType": 5126,
      "count": 922,
      "type": "VEC3"
    },
    {
      "bufferView": 3,
      "componentType": 5126,
      "count": 922,
      "type": "VEC4"
    },
    {
      "bufferView": 4,
      "componentType": 5126,
      "count": 922,
      "type": "VEC2"
    },
    {
      "bufferView": 5,
      "componentType": 5125,
      "count": 4452,
      "type": "SCALAR"
    },
    {
      "bufferView": 6,
      "componentType": 5126,
      "count": 1208,
      "max": [
        0.0746607333421707,
        0.0575316846370697,
        0.0746608972549438
      ],
      "min": [
        -0.0746607333421707,
        -0.00678747892379761,
        -0.07466059923172
      ],
      "type": "VEC3"
    },
    {
      "bufferView": 7,
      "componentType": 5126,
      "count": 1208,
      "type": "VEC3"
    },
    {
      "bufferView": 8,
      "componentType": 5126,
      "count": 1208,
      "type": "VEC4"
    },
    {
      "bufferView": 9,
      "componentType": 5126,
      "count": 1208,
      "type": "VEC2"
    },
    {
      "bufferView": 10,
      "componentType": 5125,
      "count": 1740,
      "type": "SCALAR"
    },
    {
      "bufferView": 11,
      "componentType": 5126,
      "count": 650,
      "max": [
        0.0625565052032471,
        0.0211373865604401,
        0.287322640419006
      ],
      "min": [
        -0.0419977605342865,
        -0.0211374014616013,
        -0.021137535572052
      ],
      "type": "VEC3"
    },
    {
      "bufferView": 12,
      "componentType": 5126,
      "count": 650,
      "type": "VEC3"
    },
    {
      "bufferView": 13,
      "componentType": 5126,
      "count": 650,
      "type": "VEC4"
    },
    {
      "bufferView": 14,
      "componentType": 5126,
      "count": 650,
      "type": "VEC2"
    },
    {
      "bufferView": 15,
      "componentType": 5125,
      "count": 4452,
      "type": "SCALAR"
    },
    {
      "bufferView": 16,
      "componentType": 5126,
      "count": 1206,
      "max": [
        0.0508948676288128,
        0.0046268105506897,
        0.0508947372436523
      ],
      "min": [
        -0.0508948676288128,
        -0.03921839594841,
        -0.0508950352668762
      ],
      "type": "VEC3"
    },
    {
      "bufferView": 17,
      "componentType": 5126,
      "count": 1206,
      "type": "VEC3"
    },
    {
      "bufferView": 18,
      "componentType": 5126,
      "count": 1206,
      "type": "VEC4"
    },
    {
      "bufferView": 19,
      "componentType": 5126,
      "count": 1206,
      "type": "VEC2"
    },
    {
      "bufferView": 20,
      "componentType": 5125,
      "count": 1980,
      "type": "SCALAR"
    },
    {
      "bufferView": 21,
      "componentType": 5126,
      "count": 577,
      "max": [
        0.0255117118358612,
        0.0255117565393448,
        0.148381471633911
      ],
      "min": [
        -0.149683773517609,
        -0.0255116820335388,
        -1.10638070106506
      ],
      "type": "VEC3"
    },
    {
      "bufferView": 22,
      "componentType": 5126,
      "count": 577,
      "type": "VEC3"
    },
    {
      "bufferView": 23,
      "componentType": 5126,
      "count": 577,
      "type": "VEC4"
    },
    {
      "bufferView": 24,
      "componentType": 5126,
      "count": 577,
      "type": "VEC2"
    },
    {
      "bufferView": 25,
      "componentType": 5125,
      "count": 4452,
      "type": "SCALAR"
    },
    {
      "bufferView": 26,
      "componentType": 5126,
      "count": 1198,
      "max": [
        0.0445773750543594,
        0.0371781587600708,
        0.0508047938346863
      ],
      "min": [
        -0.0445773750543594,
        -0.0276721715927124,
        -0.0508044958114624
      ],
      "type": "VEC3"
    },
    {
      "bufferView": 27,
      "componentType": 5126,
      "count": 1198,
      "type": "VEC3"
    },
    {
      "bufferView": 28,
      "componentType": 5126,
      "count": 1198,
      "type": "VEC4"
    },
    {
      "bufferView": 29,
      "componentType": 5126,
      "count": 1198,
      "type": "VEC2"
    },
    {
      "bufferView": 30,
      "componentType": 5125,
      "count": 1908,
      "type": "SCALAR"
    },
    {
      "bufferView": 31,
      "componentType": 5126,
      "count": 548,
      "max": [
        0.0861683562397957,
        0.232213139533997,
        0.0328305959701538
      ],
      "min": [
        -0.0109626138582826,
        -0.0202684085816145,
        -0.430230796337128
      ],
      "type": "VEC3"
    },
    {
      "bufferView": 32,
      "componentType": 5126,
      "count": 548,
      "type": "VEC3"
    },
    {
      "bufferView": 33,
      "componentType": 5126,
      "count": 548,
      "type": "VEC4"
    },
    {
      "bufferView": 34,
      "componentType": 5126,
      "count": 548,
      "type": "VEC2"
    },
    {
      "bufferView": 35,
      "componentType": 5125,
      "count": 1260,
      "type": "SCALAR"
    },
    {
      "bufferView": 36,
      "componentType": 5126,
      "count": 454,
      "max": [
        0.000500023365020752,
        0.0214536786079407,
        0.0212997198104858
      ],
      "min": [
        -0.000499963760375977,
        -0.0374158099293709,
        -0.0369468927383423
      ],
      "type": "VEC3"
    },
    {
      "bufferView": 37,
      "componentType": 5126,
      "count": 454,
      "type": "VEC3"
    },
    {
      "bufferView": 38,
      "componentType": 5126,
      "count": 454,
      "type": "VEC4"
    },
    {
      "bufferView": 39,
      "componentType": 5126,
      "count": 454,
      "type": "VEC2"
    },
    {
      "bufferView": 40,
      "componentType": 5125,
      "count": 3198,
      "type": "SCALAR"
    },
    {
      "bufferView": 41,
      "componentType": 5126,
      "count": 1366,
      "max": [
        0.0298500061035156,
        2.31478714942932,
        0.440493941307068
      ],
      "min": [
        -2.11715030670166,
        -0.915226757526398,
        -0.417615234851837
      ],
      "type": "VEC3"
    },
    {
      "bufferView": 42,
      "componentType": 5126,
      "count": 1366,
      "type": "VEC3"
    },
    {
      "bufferView": 43,
      "componentType": 5126,
      "count": 1366,
      "type": "VEC4"
    },
    {
      "bufferView": 44,
      "componentType": 5126,
      "count": 1366,
      "type": "VEC2"
    },
    {
      "bufferView": 45,
      "componentType": 5125,
      "count": 1260,
      "type": "SCALAR"
    },
    {
      "bufferView": 46,
      "componentType": 5126,
      "count": 456,
      "max": [
        0.000500082969665527,
        0.0214536730200052,
        0.021299684420228
      ],
      "min": [
        -0.000499844551086426,
        -0.0374158173799515,
        -0.0369467847049236
      ],
      "type": "VEC3"
    },
    {
      "bufferView": 47,
      "componentType": 5126,
      "count": 456,
      "type": "VEC3"
    },
    {
      "bufferView": 48,
      "componentType": 5126,
      "count": 456,
      "type": "VEC4"
    },
    {
      "bufferView": 49,
      "componentType": 5126,
      "count": 456,
      "type": "VEC2"
    },
    {
      "bufferView": 50,
      "componentType": 5125,
      "count": 287790,
      "type": "SCALAR"
    },
    {
      "bufferView": 51,
      "componentType": 5126,
      "count": 64612,
      "max": [
        1.06650006771088,
        2.39999580383301,
        0.992009520530701
      ],
      "min": [
        -1.06650006771088,
        -2.39999556541443,
        -0.578621804714203
      ],
      "type": "VEC3"
    },
    {
      "bufferView": 52,
      "componentType": 5126,
      "count": 64612,
      "type": "VEC3"
    },
    {
      "bufferView": 53,
      "componentType": 5126,
      "count": 64612,
      "type": "VEC4"
    },
    {
      "bufferView": 54,
      "componentType": 5126,
      "count": 64612,
      "type": "VEC2"
    },
    {
      "bufferView": 55,
      "componentType": 5125,
      "count": 360,
      "type": "SCALAR"
    },
    {
      "bufferView": 56,
      "componentType": 5126,
      "count": 122,
      "max": [
        1.06650006771088,
        1.84373652935028,
        0.267247438430786
      ],
      "min": [
        -1.06650006771088,
        -1.84373652935028,
        0.267247378826141
      ],
      "type": "VEC3"
    },
    {
      "bufferView": 57,
      "componentType": 5126,
      "count": 122,
      "type": "VEC3"
    },
    {
      "bufferView": 58,
      "componentType": 5126,
      "count": 122,
      "type": "VEC4"
    },
    {
      "bufferView": 59,
      "componentType": 5126,
      "count": 122,
      "type": "VEC2"
    },
    {
      "bufferView": 60,
      "componentType": 5125,
      "count": 114,
      "type": "SCALAR"
    },
    {
      "bufferView": 61,
      "componentType": 5126,
      "count": 46,
      "max": [
        0.0999999642372131,
        1.84373641014099,
        0.257247388362885
      ],
      "min": [
        -0.100000016391277,
        -1.84373652935028,
        -0.578621804714203
      ],
      "type": "VEC3"
    },
    {
      "bufferView": 62,
      "componentType": 5126,
      "count": 46,
      "type": "VEC3"
    },
    {
      "bufferView": 63,
      "componentType": 5126,
      "count": 46,
      "type": "VEC4"
    },
    {
      "bufferView": 64,
      "componentType": 5126,
      "count": 46,
      "type": "VEC2"
    },
    {
      "bufferView": 65,
      "componentType": 5125,
      "count": 34614,
      "type": "SCALAR"
    },
    {
      "bufferView": 66,
      "componentType": 5126,
      "count": 8323,
      "max": [
        0.105048060417175,
        1.11778855323792,
        2.11158800125122
      ],
      "min": [
        -1.50816035270691,
        -1.66253638267517,
        -0.0422152280807495
      ],
      "type": "VEC3"
    },
    {
      "bufferView": 67,
      "componentType": 5126,
      "count": 8323,
      "type": "VEC3"
    },
    {
      "bufferView": 68,
      "componentType": 5126,
      "count": 8323,
      "type": "VEC4"
    },
    {
      "bufferView": 69,
      "componentType": 5126,
      "count": 8323,
      "type": "VEC2"
    },
    {
      "bufferView": 70,
      "componentType": 5125,
      "count": 4380,
      "type": "SCALAR"
    },
    {
      "bufferView": 71,
      "componentType": 5126,
      "count": 1057,
      "max": [
        -0.970349788665771,
        -1.57179522514343,
        1.44536852836609
      ],
      "min": [
        -1.37511003017426,
        -1.79289054870605,
        0.628524422645569
      ],
      "type": "VEC3"
    },
    {
      "bufferView": 72,
      "componentType": 5126,
      "count": 1057,
      "type": "VEC3"
    },
    {
      "bufferView": 73,
      "componentType": 5126,
      "count": 1057,
      "type": "VEC4"
    },
    {
      "bufferView": 74,
      "componentType": 5126,
      "count": 1057,
      "type": "VEC2"
    },
    {
      "bufferView": 75,
      "componentType": 5125,
      "count": 5868,
      "type": "SCALAR"
    },
    {
      "bufferView": 76,
      "componentType": 5126,
      "count": 2366,
      "max": [
        1.16410005092621,
        0.175769656896591,
        0.662746965885162
      ],
      "min": [
        -0.968900442123413,
        -1.39377379417419,
        -0.39088648557663
      ],
      "type": "VEC3"
    },
    {
      "bufferView": 77,
      "componentType": 5126,
      "count": 2366,
      "type": "VEC3"
    },
    {
      "bufferView": 78,
      "componentType": 5126,
      "count": 2366,
      "type": "VEC4"
    },
    {
      "bufferView": 79,
      "componentType": 5126,
      "count": 2366,
      "type": "VEC2"
    },
    {
      "bufferView": 80,
      "componentType": 5125,
      "count": 9672,
      "type": "SCALAR"
    },
    {
      "bufferView": 81,
      "componentType": 5126,
      "count": 3362,
      "max": [
        1.06650006771088,
        1.84373700618744,
        1.45993888378143
      ],
      "min": [
        -1.06650018692017,
        -1.8437362909317,
        1.22287809848785
      ],
      "type": "VEC3"
    },
    {
      "bufferView": 82,
      "componentType": 5126,
      "count": 3362,
      "type": "VEC3"
    },
    {
      "bufferView": 83,
      "componentType": 5126,
      "count": 3362,
      "type": "VEC4"
    },
    {
      "bufferView": 84,
      "componentType": 5126,
      "count": 3362,
      "type": "VEC2"
    },
    {
      "bufferView": 85,
      "componentType": 5125,
      "count": 948,
      "type": "SCALAR"
    },
    {
      "bufferView": 86,
      "componentType": 5126,
      "count": 344,
      "max": [
        0.0127170085906982,
        0.0629093497991562,
        0.154320478439331
      ],
      "min": [
        -0.0127169042825699,
        -0.0629093423485756,
        -5.36441802978516e-07
      ],
      "type": "VEC3"
    },
    {
      "bufferView": 87,
      "componentType": 5126,
      "count": 344,
      "type": "VEC3"
    },
    {
      "bufferView": 88,
      "componentType": 5126,
      "count": 344,
      "type": "VEC4"
    },
    {
      "bufferView": 89,
      "componentType": 5126,
      "count": 344,
      "type": "VEC2"
    },
    {
      "bufferView": 90,
      "componentType": 5125,
      "count": 75210,
      "type": "SCALAR"
    },
    {
      "bufferView": 91,
      "componentType": 5126,
      "count": 24626,
      "max": [
        0.796069502830505,
        1.24205732345581,
        0.468935012817383
      ],
      "min": [
        -0.779649257659912,
        -0.902466654777527,
        -2.16640567779541
      ],
      "type": "VEC3"
    },
    {
      "bufferView": 92,
      "componentType": 5126,
      "count": 24626,
      "type": "VEC3"
    },
    {
      "bufferView": 93,
      "componentType": 5126,
      "count": 24626,
      "type": "VEC4"
    },
    {
      "bufferView": 94,
      "componentType": 5126,
      "count": 24626,
      "type": "VEC2"
    },
    {
      "bufferView": 95,
      "componentType": 5125,
      "count": 41271,
      "type": "SCALAR"
    },
    {
      "bufferView": 96,
      "componentType": 5126,
      "count": 12291,
      "max": [
        1.08648777008057,
        2.00002527236938,
        0.735597908496857
      ],
      "min": [
        -1.08648788928986,
        -2.00002551078796,
        -1.17147922515869
      ],
      "type": "VEC3"
    },
    {
      "bufferView": 97,
      "componentType": 5126,
      "count": 12291,
      "type": "VEC3"
    },
    {
      "bufferView": 98,
      "componentType": 5126,
      "count": 12291,
      "type": "VEC4"
    },
    {
      "bufferView": 99,
      "componentType": 5126,
      "count": 12291,
      "type": "VEC2"
    },
    {
      "bufferView": 100,
      "componentType": 5125,
      "count": 17820,
      "type": "SCALAR"
    },
    {
      "bufferView": 101,
      "componentType": 5126,
      "count": 4764,
      "max": [
        0.430659294128418,
        1.4932576417923,
        1.28721868991852
      ],
      "min": [
        -0.41250005364418,
        -1.53807377815247,
        -0.873262584209442
      ],
      "type": "VEC3"
    },
    {
      "bufferView": 102,
      "componentType": 5126,
      "count": 4764,
      "type": "VEC3"
    },
    {
      "bufferView": 103,
      "componentType": 5126,
      "count": 4764,
      "type": "VEC4"
    },
    {
      "bufferView": 104,
      "componentType": 5126,
      "count": 4764,
      "type": "VEC2"
    },
    {
      "bufferView": 105,
      "componentType": 5125,
      "count": 10392,
      "type": "SCALAR"
    },
    {
      "bufferView": 106,
      "componentType": 5126,
      "count": 3620,
      "max": [
        0.977391183376312,
        1.85373651981354,
        -0.267240941524506
      ],
      "min": [
        -0.977391183376312,
        -1.85373651981354,
        -0.578621804714203
      ],
      "type": "VEC3"
    },
    {
      "bufferView": 107,
      "componentType": 5126,
      "count": 3620,
      "type": "VEC3"
    },
    {
      "bufferView": 108,
      "componentType": 5126,
      "count": 3620,
      "type": "VEC4"
    },
    {
      "bufferView": 109,
      "componentType": 5126,
      "count": 3620,
      "type": "VEC2"
    },
    {
      "bufferView": 110,
      "componentType": 5125,
      "count": 4764,
      "type": "SCALAR"
    },
    {
      "bufferView": 111,
      "componentType": 5126,
      "count": 1750,
      "max": [
        1.07650005817413,
        1.80981206893921,
        0.257247745990753
      ],
      "min": [
        -1.07650017738342,
        -1.80981194972992,
        -0.578621685504913
      ],
      "type": "VEC3"
    },
    {
      "bufferView": 112,
      "componentType": 5126,
      "count": 1750,
      "type": "VEC3"
    },
    {
      "bufferView": 113,
      "componentType": 5126,
      "count": 1750,
      "type": "VEC4"
    },
    {
      "bufferView": 114,
      "componentType": 5126,
      "count": 1750,
      "type": "VEC2"
    },
    {
      "bufferView": 115,
      "componentType": 5125,
      "count": 4680,
      "type": "SCALAR"
    },
    {
      "bufferView": 116,
      "componentType": 5126,
      "count": 1824,
      "max": [
        0.883783757686615,
        1.8207882642746,
        0.257247745990753
      ],
      "min": [
        -0.88378369808197,
        -1.8207882642746,
        -0.578621685504913
      ],
      "type": "VEC3"
    },
    {
      "bufferView": 117,
      "componentType": 5126,
      "count": 1824,
      "type": "VEC3"
    },
    {
      "bufferView": 118,
      "componentType": 5126,
      "count": 1824,
      "type": "VEC4"
    },
    {
      "bufferView": 119,
      "componentType": 5126,
      "count": 1824,
      "type": "VEC2"
    },
    {
      "bufferView": 120,
      "componentType": 5125,
      "count": 1440,
      "type": "SCALAR"
    },
    {
      "bufferView": 121,
      "componentType": 5126,
      "count": 504,
      "max": [
        0.00948834419250488,
        3.64821887016296,
        0.67056530714035
      ],
      "min": [
        -0.852906703948975,
        -0.0210402011871338,
        -0.115304231643677
      ],
      "type": "VEC3"
    },
    {
      "bufferView": 122,
      "componentType": 5126,
      "count": 504,
      "type": "VEC3"
    },
    {
      "bufferView": 123,
      "componentType": 5126,
      "count": 504,
      "type": "VEC4"
    },
    {
      "bufferView": 124,
      "componentType": 5126,
      "count": 504,
      "type": "VEC2"
    },
    {
      "bufferView": 125,
      "componentType": 5125,
      "count": 17088,
      "type": "SCALAR"
    },
    {
      "bufferView": 126,
      "componentType": 5126,
      "count": 6253,
      "max": [
        0.104940414428711,
        3.67803454399109,
        0.700564920902252
      ],
      "min": [
        -0.948358774185181,
        -0.0508558750152588,
        -0.115304231643677
      ],
      "type": "VEC3"
    },
    {
      "bufferView": 127,
      "componentType": 5126,
      "count": 6253,
      "type": "VEC3"
    },
    {
      "bufferView": 128,
      "componentType": 5126,
      "count": 6253,
      "type": "VEC4"
    },
    {
      "bufferView": 129,
      "componentType": 5126,
      "count": 6253,
      "type": "VEC2"
    },
    {
      "bufferView": 130,
      "componentType": 5125,
      "count": 15900,
      "type": "SCALAR"
    },
    {
      "bufferView": 131,
      "componentType": 5126,
      "count": 4853,
      "max": [
        0.763296127319336,
        2.17291402816772,
        1.30590438842773
      ],
      "min": [
        -1.49337148666382,
        -1.42981266975403,
        -0.473347246646881
      ],
      "type": "VEC3"
    },
    {
      "bufferView": 132,
      "componentType": 5126,
      "count": 4853,
      "type": "VEC3"
    },
    {
      "bufferView": 133,
      "componentType": 5126,
      "count": 4853,
      "type": "VEC4"
    },
    {
      "bufferView": 134,
      "componentType": 5126,
      "count": 4853,
      "type": "VEC2"
    }
  ],
  "asset": {
    "generator": "Adobe Substance 3D Painter 10.1.2",
    "version": "2.0"
  },
  "bufferViews": [
    {
      "buffer": 0,
      "byteLength": 10536,
      "target": 34963
    },
    {
      "buffer": 0,
      "byteLength": 11064,
      "byteOffset": 10536,
      "target": 34962
    },
    {
      "buffer": 0,
      "byteLength": 11064,
      "byteOffset": 21600,
      "target": 34962
    },
    {
      "buffer": 0,
      "byteLength": 14752,
      "byteOffset": 32664,
      "target": 34962
    },
    {
      "buffer": 0,
      "byteLength": 7376,
      "byteOffset": 47416,
      "target": 34962
    },
    {
      "buffer": 0,
      "byteLength": 17808,
      "byteOffset": 54792,
      "target": 34963
    },
    {
      "buffer": 0,
      "byteLength": 14496,
      "byteOffset": 72600,
      "target": 34962
    },
    {
      "buffer": 0,
      "byteLength": 14496,
      "byteOffset": 87096,
      "target": 34962
    },
    {
      "buffer": 0,
      "byteLength": 19328,
      "byteOffset": 101592,
      "target": 34962
    },
    {
      "buffer": 0,
      "byteLength": 9664,
      "byteOffset": 120920,
      "target": 34962
    },
    {
      "buffer": 0,
      "byteLength": 6960,
      "byteOffset": 130584,
      "target": 34963
    },
    {
      "buffer": 0,
      "byteLength": 7800,
      "byteOffset": 137544,
      "target": 34962
    },
    {
      "buffer": 0,
      "byteLength": 7800,
      "byteOffset": 145344,
      "target": 34962
    },
    {
      "buffer": 0,
      "byteLength": 10400,
      "byteOffset": 153144,
      "target": 34962
    },
    {
      "buffer": 0,
      "byteLength": 5200,
      "byteOffset": 163544,
      "target": 34962
    },
    {
      "buffer": 0,
      "byteLength": 17808,
      "byteOffset": 168744,
      "target": 34963
    },
    {
      "buffer": 0,
      "byteLength": 14472,
      "byteOffset": 186552,
      "target": 34962
    },
    {
      "buffer": 0,
      "byteLength": 14472,
      "byteOffset": 201024,
      "target": 34962
    },
    {
      "buffer": 0,
      "byteLength": 19296,
      "byteOffset": 215496,
      "target": 34962
    },
    {
      "buffer": 0,
      "byteLength": 9648,
      "byteOffset": 234792,
      "target": 34962
    },
    {
      "buffer": 0,
      "byteLength": 7920,
      "byteOffset": 244440,
      "target": 34963
    },
    {
      "buffer": 0,
      "byteLength": 6924,
      "byteOffset": 252360,
      "target": 34962
    },
    {
      "buffer": 0,
      "byteLength": 6924,
      "byteOffset": 259284,
      "target": 34962
    },
    {
      "buffer": 0,
      "byteLength": 9232,
      "byteOffset": 266208,
      "target": 34962
    },
    {
      "buffer": 0,
      "byteLength": 4616,
      "byteOffset": 275440,
      "target": 34962
    },
    {
      "buffer": 0,
      "byteLength": 17808,
      "byteOffset": 280056,
      "target": 34963
    },
    {
      "buffer": 0,
      "byteLength": 14376,
      "byteOffset": 297864,
      "target": 34962
    },
    {
      "buffer": 0,
      "byteLength": 14376,
      "byteOffset": 312240,
      "target": 34962
    },
    {
      "buffer": 0,
      "byteLength": 19168,
      "byteOffset": 326616,
      "target": 34962
    },
    {
      "buffer": 0,
      "byteLength": 9584,
      "byteOffset": 345784,
      "target": 34962
    },
    {
      "buffer": 0,
      "byteLength": 7632,
      "byteOffset": 355368,
      "target": 34963
    },
    {
      "buffer": 0,
      "byteLength": 6576,
      "byteOffset": 363000,
      "target": 34962
    },
    {
      "buffer": 0,
      "byteLength": 6576,
      "byteOffset": 369576,
      "target": 34962
    },
    {
      "buffer": 0,
      "byteLength": 8768,
      "byteOffset": 376152,
      "target": 34962
    },
    {
      "buffer": 0,
      "byteLength": 4384,
      "byteOffset": 384920,
      "target": 34962
    },
    {
      "buffer": 0,
      "byteLength": 5040,
      "byteOffset": 389304,
      "target": 34963
    },
    {
      "buffer": 0,
      "byteLength": 5448,
      "byteOffset": 394344,
      "target": 34962
    },
    {
      "buffer": 0,
      "byteLength": 5448,
      "byteOffset": 399792,
      "target": 34962
    },
    {
      "buffer": 0,
      "byteLength": 7264,
      "byteOffset": 405240,
      "target": 34962
    },
    {
      "buffer": 0,
      "byteLength": 3632,
      "byteOffset": 412504,
      "target": 34962
    },
    {
      "buffer": 0,
      "byteLength": 12792,
      "byteOffset": 416136,
      "target": 34963
    },
    {
      "buffer": 0,
      "byteLength": 16392,
      "byteOffset": 428928,
      "target": 34962
    },
    {
      "buffer": 0,
      "byteLength": 16392,
      "byteOffset": 445320,
      "target": 34962
    },
    {
      "buffer": 0,
      "byteLength": 21856,
      "byteOffset": 461712,
      "target": 34962
    },
    {
      "buffer": 0,
      "byteLength": 10928,
      "byteOffset": 483568,
      "target": 34962
    },
    {
      "buffer": 0,
      "byteLength": 5040,
      "byteOffset": 494496,
      "target": 34963
    },
    {
      "buffer": 0,
      "byteLength": 5472,
      "byteOffset": 499536,
      "target": 34962
    },
    {
      "buffer": 0,
      "byteLength": 5472,
      "byteOffset": 505008,
      "target": 34962
    },
    {
      "buffer": 0,
      "byteLength": 7296,
      "byteOffset": 510480,
      "target": 34962
    },
    {
      "buffer": 0,
      "byteLength": 3648,
      "byteOffset": 517776,
      "target": 34962
    },
    {
      "buffer": 0,
      "byteLength": 1151160,
      "byteOffset": 521424,
      "target": 34963
    },
    {
      "buffer": 0,
      "byteLength": 775344,
      "byteOffset": 1672584,
      "target": 34962
    },
    {
      "buffer": 0,
      "byteLength": 775344,
      "byteOffset": 2447928,
      "target": 34962
    },
    {
      "buffer": 0,
      "byteLength": 1033792,
      "byteOffset": 3223272,
      "target": 34962
    },
    {
      "buffer": 0,
      "byteLength": 516896,
      "byteOffset": 4257064,
      "target": 34962
    },
    {
      "buffer": 0,
      "byteLength": 1440,
      "byteOffset": 4773960,
      "target": 34963
    },
    {
      "buffer": 0,
      "byteLength": 1464,
      "byteOffset": 4775400,
      "target": 34962
    },
    {
      "buffer": 0,
      "byteLength": 1464,
      "byteOffset": 4776864,
      "target": 34962
    },
    {
      "buffer": 0,
      "byteLength": 1952,
      "byteOffset": 4778328,
      "target": 34962
    },
    {
      "buffer": 0,
      "byteLength": 976,
      "byteOffset": 4780280,
      "target": 34962
    },
    {
      "buffer": 0,
      "byteLength": 456,
      "byteOffset": 4781256,
      "target": 34963
    },
    {
      "buffer": 0,
      "byteLength": 552,
      "byteOffset": 4781712,
      "target": 34962
    },
    {
      "buffer": 0,
      "byteLength": 552,
      "byteOffset": 4782264,
      "target": 34962
    },
    {
      "buffer": 0,
      "byteLength": 736,
      "byteOffset": 4782816,
      "target": 34962
    },
    {
      "buffer": 0,
      "byteLength": 368,
      "byteOffset": 4783552,
      "target": 34962
    },
    {
      "buffer": 0,
      "byteLength": 138456,
      "byteOffset": 4783920,
      "target": 34963
    },
    {
      "buffer": 0,
      "byteLength": 99876,
      "byteOffset": 4922376,
      "target": 34962
    },
    {
      "buffer": 0,
      "byteLength": 99876,
      "byteOffset": 5022252,
      "target": 34962
    },
    {
      "buffer": 0,
      "byteLength": 133168,
      "byteOffset": 5122128,
      "target": 34962
    },
    {
      "buffer": 0,
      "byteLength": 66584,
      "byteOffset": 5255296,
      "target": 34962
    },
    {
      "buffer": 0,
      "byteLength": 17520,
      "byteOffset": 5321880,
      "target": 34963
    },
    {
      "buffer": 0,
      "byteLength": 12684,
      "byteOffset": 5339400,
      "target": 34962
    },
    {
      "buffer": 0,
      "byteLength": 12684,
      "byteOffset": 5352084,
      "target": 34962
    },
    {
      "buffer": 0,
      "byteLength": 16912,
      "byteOffset": 5364768,
      "target": 34962
    },
    {
      "buffer": 0,
      "byteLength": 8456,
      "byteOffset": 5381680,
      "target": 34962
    },
    {
      "buffer": 0,
      "byteLength": 23472,
      "byteOffset": 5390136,
      "target": 34963
    },
    {
      "buffer": 0,
      "byteLength": 28392,
      "byteOffset": 5413608,
      "target": 34962
    },
    {
      "buffer": 0,
      "byteLength": 28392,
      "byteOffset": 5442000,
      "target": 34962
    },
    {
      "buffer": 0,
      "byteLength": 37856,
      "byteOffset": 5470392,
      "target": 34962
    },
    {
      "buffer": 0,
      "byteLength": 18928,
      "byteOffset": 5508248,
      "target": 34962
    },
    {
      "buffer": 0,
      "byteLength": 38688,
      "byteOffset": 5527176,
      "target": 34963
    },
    {
      "buffer": 0,
      "byteLength": 40344,
      "byteOffset": 5565864,
      "target": 34962
    },
    {
      "buffer": 0,
      "byteLength": 40344,
      "byteOffset": 5606208,
      "target": 34962
    },
    {
      "buffer": 0,
      "byteLength": 53792,
      "byteOffset": 5646552,
      "target": 34962
    },
    {
      "buffer": 0,
      "byteLength": 26896,
      "byteOffset": 5700344,
      "target": 34962
    },
    {
      "buffer": 0,
      "byteLength": 3792,
      "byteOffset": 5727240,
      "target": 34963
    },
    {
      "buffer": 0,
      "byteLength": 4128,
      "byteOffset": 5731032,
      "target": 34962
    },
    {
      "buffer": 0,
      "byteLength": 4128,
      "byteOffset": 5735160,
      "target": 34962
    },
    {
      "buffer": 0,
      "byteLength": 5504,
      "byteOffset": 5739288,
      "target": 34962
    },
    {
      "buffer": 0,
      "byteLength": 2752,
      "byteOffset": 5744792,
      "target": 34962
    },
    {
      "buffer": 0,
      "byteLength": 300840,
      "byteOffset": 5747544,
      "target": 34963
    },
    {
      "buffer": 0,
      "byteLength": 295512,
      "byteOffset": 6048384,
      "target": 34962
    },
    {
      "buffer": 0,
      "byteLength": 295512,
      "byteOffset": 6343896,
      "target": 34962
    },
    {
      "buffer": 0,
      "byteLength": 394016,
      "byteOffset": 6639408,
      "target": 34962
    },
    {
      "buffer": 0,
      "byteLength": 197008,
      "byteOffset": 7033424,
      "target": 34962
    },
    {
      "buffer": 0,
      "byteLength": 165084,
      "byteOffset": 7230432,
      "target": 34963
    },
    {
      "buffer": 0,
      "byteLength": 147492,
      "byteOffset": 7395516,
      "target": 34962
    },
    {
      "buffer": 0,
      "byteLength": 147492,
      "byteOffset": 7543008,
      "target": 34962
    },
    {
      "buffer": 0,
      "byteLength": 196656,
      "byteOffset": 7690500,
      "target": 34962
    },
    {
      "buffer": 0,
      "byteLength": 98328,
      "byteOffset": 7887156,
      "target": 34962
    },
    {
      "buffer": 0,
      "byteLength": 71280,
      "byteOffset": 7985484,
      "target": 34963
    },
    {
      "buffer": 0,
      "byteLength": 57168,
      "byteOffset": 8056764,
      "target": 34962
    },
    {
      "buffer": 0,
      "byteLength": 57168,
      "byteOffset": 8113932,
      "target": 34962
    },
    {
      "buffer": 0,
      "byteLength": 76224,
      "byteOffset": 8171100,
      "target": 34962
    },
    {
      "buffer": 0,
      "byteLength": 38112,
      "byteOffset": 8247324,
      "target": 34962
    },
    {
      "buffer": 0,
      "byteLength": 41568,
      "byteOffset": 8285436,
      "target": 34963
    },
    {
      "buffer": 0,
      "byteLength": 43440,
      "byteOffset": 8327004,
      "target": 34962
    },
    {
      "buffer": 0,
      "byteLength": 43440,
      "byteOffset": 8370444,
      "target": 34962
    },
    {
      "buffer": 0,
      "byteLength": 57920,
      "byteOffset": 8413884,
      "target": 34962
    },
    {
      "buffer": 0,
      "byteLength": 28960,
      "byteOffset": 8471804,
      "target": 34962
    },
    {
      "buffer": 0,
      "byteLength": 19056,
      "byteOffset": 8500764,
      "target": 34963
    },
    {
      "buffer": 0,
      "byteLength": 21000,
      "byteOffset": 8519820,
      "target": 34962
    },
    {
      "buffer": 0,
      "byteLength": 21000,
      "byteOffset": 8540820,
      "target": 34962
    },
    {
      "buffer": 0,
      "byteLength": 28000,
      "byteOffset": 8561820,
      "target": 34962
    },
    {
      "buffer": 0,
      "byteLength": 14000,
      "byteOffset": 8589820,
      "target": 34962
    },
    {
      "buffer": 0,
      "byteLength": 18720,
      "byteOffset": 8603820,
      "target": 34963
    },
    {
      "buffer": 0,
      "byteLength": 21888,
      "byteOffset": 8622540,
      "target": 34962
    },
    {
      "buffer": 0,
      "byteLength": 21888,
      "byteOffset": 8644428,
      "target": 34962
    },
    {
      "buffer": 0,
      "byteLength": 29184,
      "byteOffset": 8666316,
      "target": 34962
    },
    {
      "buffer": 0,
      "byteLength": 14592,
      "byteOffset": 8695500,
      "target": 34962
    },
    {
      "buffer": 0,
      "byteLength": 5760,
      "byteOffset": 8710092,
      "target": 34963
    },
    {
      "buffer": 0,
      "byteLength": 6048,
      "byteOffset": 8715852,
      "target": 34962
    },
    {
      "buffer": 0,
      "byteLength": 6048,
      "byteOffset": 8721900,
      "target": 34962
    },
    {
      "buffer": 0,
      "byteLength": 8064,
      "byteOffset": 8727948,
      "target": 34962
    },
    {
      "buffer": 0,
      "byteLength": 4032,
      "byteOffset": 8736012,
      "target": 34962
    },
    {
      "buffer": 0,
      "byteLength": 68352,
      "byteOffset": 8740044,
      "target": 34963
    },
    {
      "buffer": 0,
      "byteLength": 75036,
      "byteOffset": 8808396,
      "target": 34962
    },
    {
      "buffer": 0,
      "byteLength": 75036,
      "byteOffset": 8883432,
      "target": 34962
    },
    {
      "buffer": 0,
      "byteLength": 100048,
      "byteOffset": 8958468,
      "target": 34962
    },
    {
      "buffer": 0,
      "byteLength": 50024,
      "byteOffset": 9058516,
      "target": 34962
    },
    {
      "buffer": 0,
      "byteLength": 63600,
      "byteOffset": 9108540,
      "target": 34963
    },
    {
      "buffer": 0,
      "byteLength": 58236,
      "byteOffset": 9172140,
      "target": 34962
    },
    {
      "buffer": 0,
      "byteLength": 58236,
      "byteOffset": 9230376,
      "target": 34962
    },
    {
      "buffer": 0,
      "byteLength": 77648,
      "byteOffset": 9288612,
      "target": 34962
    },
    {
      "buffer": 0,
      "byteLength": 38824,
      "byteOffset": 9366260,
      "target": 34962
    }
  ],
  "buffers": [
    {
      "byteLength": 9405084,
      "uri": "liv2.bin"
    }
  ],
  "images": [
    {
      "uri": "alas_baseColor.png"
    },
    {
      "uri": "alas_occlusionRoughnessMetallic.png"
    },
    {
      "uri": "alas_normal.png"
    },
    {
      "uri": "atap_baseColor.png"
    },
    {
      "uri": "atap_occlusionRoughnessMetallic.png"
    },
    {
      "uri": "atap_normal.png"
    },
    {
      "uri": "bdy atas_baseColor.png"
    },
    {
      "uri": "bdy atas_occlusionRoughnessMetallic.png"
    },
    {
      "uri": "bdy atas_normal.png"
    },
    {
      "uri": "boiler_baseColor.png"
    },
    {
      "uri": "boiler_occlusionRoughnessMetallic.png"
    },
    {
      "uri": "boiler_normal.png"
    },
    {
      "uri": "bwh_baseColor.png"
    },
    {
      "uri": "bwh_occlusionRoughnessMetallic.png"
    },
    {
      "uri": "bwh_normal.png"
    },
    {
      "uri": "duah_baseColor.png"
    },
    {
      "uri": "duah_occlusionRoughnessMetallic.png"
    },
    {
      "uri": "duah_normal.png"
    },
    {
      "uri": "emas_baseColor.png"
    },
    {
      "uri": "emas_occlusionRoughnessMetallic.png"
    },
    {
      "uri": "emas_normal.png"
    },
    {
      "uri": "htm bwh_baseColor.png"
    },
    {
      "uri": "htm bwh_occlusionRoughnessMetallic.png"
    },
    {
      "uri": "htm bwh_normal.png"
    },
    {
      "uri": "merah_baseColor.png"
    },
    {
      "uri": "merah_occlusionRoughnessMetallic.png"
    },
    {
      "uri": "merah_normal.png"
    },
    {
      "uri": "merah2_baseColor.png"
    },
    {
      "uri": "merah2_occlusionRoughnessMetallic.png"
    },
    {
      "uri": "merah2_normal.png"
    },
    {
      "uri": "tralis_baseColor.png"
    },
    {
      "uri": "tralis_occlusionRoughnessMetallic.png"
    },
    {
      "uri": "tralis_normal.png"
    },
    {
      "uri": "tuas_baseColor.png"
    },
    {
      "uri": "tuas_occlusionRoughnessMetallic.png"
    },
    {
      "uri": "tuas_normal.png"
    }
  ],
  "materials": [
    {
      "alphaMode": "OPAQUE",
      "name": "alas",
      "normalTexture": {
        "index": 2
      },
      "occlusionTexture": {
        "index": 1
      },
      "pbrMetallicRoughness": {
        "baseColorTexture": {
          "index": 0
        },
        "metallicRoughnessTexture": {
          "index": 1
        }
      }
    },
    {
      "alphaMode": "OPAQUE",
      "name": "atap",
      "normalTexture": {
        "index": 5
      },
      "occlusionTexture": {
        "index": 4
      },
      "pbrMetallicRoughness": {
        "baseColorTexture": {
          "index": 3
        },
        "metallicRoughnessTexture": {
          "index": 4
        }
      }
    },
    {
      "alphaMode": "OPAQUE",
      "name": "bdy atas",
      "normalTexture": {
        "index": 8
      },
      "occlusionTexture": {
        "index": 7
      },
      "pbrMetallicRoughness": {
        "baseColorTexture": {
          "index": 6
        },
        "metallicRoughnessTexture": {
          "index": 7
        }
      }
    },
    {
      "alphaMode": "OPAQUE",
      "name": "boiler",
      "normalTexture": {
        "index": 11
      },
      "occlusionTexture": {
        "index": 10
      },
      "pbrMetallicRoughness": {
        "baseColorTexture": {
          "index": 9
        },
        "metallicRoughnessTexture": {
          "index": 10
        }
      }
    },
    {
      "alphaMode": "OPAQUE",
      "name": "bwh",
      "normalTexture": {
        "index": 14
      },
      "occlusionTexture": {
        "index": 13
      },
      "pbrMetallicRoughness": {
        "baseColorTexture": {
          "index": 12
        },
        "metallicRoughnessTexture": {
          "index": 13
        }
      }
    },
    {
      "alphaMode": "OPAQUE",
      "name": "duah",
      "normalTexture": {
        "index": 17
      },
      "occlusionTexture": {
        "index": 16
      },
      "pbrMetallicRoughness": {
        "baseColorTexture": {
          "index": 15
        },
        "metallicRoughnessTexture": {
          "index": 16
        }
      }
    },
    {
      "alphaMode": "OPAQUE",
      "name": "emas",
      "normalTexture": {
        "index": 20
      },
      "occlusionTexture": {
        "index": 19
      },
      "pbrMetallicRoughness": {
        "baseColorTexture": {
          "index": 18
        },
        "metallicRoughnessTexture": {
          "index": 19
        }
      }
    },
    {
      "alphaMode": "OPAQUE",
      "name": "htm bwh",
      "normalTexture": {
        "index": 23
      },
      "occlusionTexture": {
        "index": 22
      },
      "pbrMetallicRoughness": {
        "baseColorTexture": {
          "index": 21
        },
        "metallicRoughnessTexture": {
          "index": 22
        }
      }
    },
    {
      "alphaMode": "OPAQUE",
      "name": "merah",
      "normalTexture": {
        "index": 26
      },
      "occlusionTexture": {
        "index": 25
      },
      "pbrMetallicRoughness": {
        "baseColorTexture": {
          "index": 24
        },
        "metallicRoughnessTexture": {
          "index": 25
        }
      }
    },
    {
      "alphaMode": "OPAQUE",
      "name": "merah2",
      "normalTexture": {
        "index": 29
      },
      "occlusionTexture": {
        "index": 28
      },
      "pbrMetallicRoughness": {
        "baseColorTexture": {
          "index": 27
        },
        "metallicRoughnessTexture": {
          "index": 28
        }
      }
    },
    {
      "alphaMode": "OPAQUE",
      "name": "tralis",
      "normalTexture": {
        "index": 32
      },
      "occlusionTexture": {
        "index": 31
      },
      "pbrMetallicRoughness": {
        "baseColorTexture": {
          "index": 30
        },
        "metallicRoughnessTexture": {
          "index": 31
        }
      }
    },
    {
      "alphaMode": "OPAQUE",
      "name": "tuas",
      "normalTexture": {
        "index": 35
      },
      "occlusionTexture": {
        "index": 34
      },
      "pbrMetallicRoughness": {
        "baseColorTexture": {
          "index": 33
        },
        "metallicRoughnessTexture": {
          "index": 34
        }
      }
    }
  ],
  "meshes": [
    {
      "name": "Circle.008",
      "primitives": [
        {
          "attributes": {
            "NORMAL": 2,
            "POSITION": 1,
            "TANGENT": 3,
            "TEXCOORD_0": 4
          },
          "indices": 0,
          "material": 11,
          "mode": 4
        }
      ]
    },
    {
      "name": "Cylinder.013",
      "primitives": [
        {
          "attributes": {
            "NORMAL": 7,
            "POSITION": 6,
            "TANGENT": 8,
            "TEXCOORD_0": 9
          },
          "indices": 5,
          "material": 11,
          "mode": 4
        }
      ]
    },
    {
      "name": "regulator",
      "primitives": [
        {
          "attributes": {
            "NORMAL": 12,
            "POSITION": 11,
            "TANGENT": 13,
            "TEXCOORD_0": 14
          },
          "indices": 10,
          "material": 11,
          "mode": 4
        }
      ]
    },
    {
      "name": "Cylinder.010",
      "primitives": [
        {
          "attributes": {
            "NORMAL": 17,
            "POSITION": 16,
            "TANGENT": 18,
            "TEXCOORD_0": 19
          },
          "indices": 15,
          "material": 11,
          "mode": 4
        }
      ]
    },
    {
      "name": "Cylinder.012",
      "primitives": [
        {
          "attributes": {
            "NORMAL": 22,
            "POSITION": 21,
            "TANGENT": 23,
            "TEXCOORD_0": 24
          },
          "indices": 20,
          "material": 11,
          "mode": 4
        }
      ]
    },
    {
      "name": "Cylinder.015",
      "primitives": [
        {
          "attributes": {
            "NORMAL": 27,
            "POSITION": 26,
            "TANGENT": 28,
            "TEXCOORD_0": 29
          },
          "indices": 25,
          "material": 11,
          "mode": 4
        }
      ]
    },
    {
      "name": "Plane.003",
      "primitives": [
        {
          "attributes": {
            "NORMAL": 32,
            "POSITION": 31,
            "TANGENT": 33,
            "TEXCOORD_0": 34
          },
          "indices": 30,
          "material": 11,
          "mode": 4
        }
      ]
    },
    {
      "name": "needle",
      "primitives": [
        {
          "attributes": {
            "NORMAL": 37,
            "POSITION": 36,
            "TANGENT": 38,
            "TEXCOORD_0": 39
          },
          "indices": 35,
          "material": 11,
          "mode": 4
        }
      ]
    },
    {
      "name": "pintu",
      "primitives": [
        {
          "attributes": {
            "NORMAL": 42,
            "POSITION": 41,
            "TANGENT": 43,
            "TEXCOORD_0": 44
          },
          "indices": 40,
          "material": 2,
          "mode": 4
        }
      ]
    },
    {
      "name": "needle.001",
      "primitives": [
        {
          "attributes": {
            "NORMAL": 47,
            "POSITION": 46,
            "TANGENT": 48,
            "TEXCOORD_0": 49
          },
          "indices": 45,
          "material": 11,
          "mode": 4
        }
      ]
    },
    {
      "name": "Cube.019",
      "primitives": [
        {
          "attributes": {
            "NORMAL": 52,
            "POSITION": 51,
            "TANGENT": 53,
            "TEXCOORD_0": 54
          },
          "indices": 50,
          "material": 4,
          "mode": 4
        }
      ]
    },
    {
      "name": "Cube.019",
      "primitives": [
        {
          "attributes": {
            "NORMAL": 57,
            "POSITION": 56,
            "TANGENT": 58,
            "TEXCOORD_0": 59
          },
          "indices": 55,
          "material": 0,
          "mode": 4
        }
      ]
    },
    {
      "name": "Cube.019",
      "primitives": [
        {
          "attributes": {
            "NORMAL": 62,
            "POSITION": 61,
            "TANGENT": 63,
            "TEXCOORD_0": 64
          },
          "indices": 60,
          "material": 9,
          "mode": 4
        }
      ]
    },
    {
      "name": "BezierCurve",
      "primitives": [
        {
          "attributes": {
            "NORMAL": 67,
            "POSITION": 66,
            "TANGENT": 68,
            "TEXCOORD_0": 69
          },
          "indices": 65,
          "material": 6,
          "mode": 4
        }
      ]
    },
    {
      "name": "BezierCurve",
      "primitives": [
        {
          "attributes": {
            "NORMAL": 72,
            "POSITION": 71,
            "TANGENT": 73,
            "TEXCOORD_0": 74
          },
          "indices": 70,
          "material": 3,
          "mode": 4
        }
      ]
    },
    {
      "name": "tralis",
      "primitives": [
        {
          "attributes": {
            "NORMAL": 77,
            "POSITION": 76,
            "TANGENT": 78,
            "TEXCOORD_0": 79
          },
          "indices": 75,
          "material": 10,
          "mode": 4
        }
      ]
    },
    {
      "name": "Cube.046",
      "primitives": [
        {
          "attributes": {
            "NORMAL": 82,
            "POSITION": 81,
            "TANGENT": 83,
            "TEXCOORD_0": 84
          },
          "indices": 80,
          "material": 1,
          "mode": 4
        }
      ]
    },
    {
      "name": "int",
      "primitives": [
        {
          "attributes": {
            "NORMAL": 87,
            "POSITION": 86,
            "TANGENT": 88,
            "TEXCOORD_0": 89
          },
          "indices": 85,
          "material": 6,
          "mode": 4
        }
      ]
    },
    {
      "name": "int",
      "primitives": [
        {
          "attributes": {
            "NORMAL": 92,
            "POSITION": 91,
            "TANGENT": 93,
            "TEXCOORD_0": 94
          },
          "indices": 90,
          "material": 5,
          "mode": 4
        }
      ]
    },
    {
      "name": "body",
      "primitives": [
        {
          "attributes": {
            "NORMAL": 97,
            "POSITION": 96,
            "TANGENT": 98,
            "TEXCOORD_0": 99
          },
          "indices": 95,
          "material": 2,
          "mode": 4
        }
      ]
    },
    {
      "name": "boiler",
      "primitives": [
        {
          "attributes": {
            "NORMAL": 102,
            "POSITION": 101,
            "TANGENT": 103,
            "TEXCOORD_0": 104
          },
          "indices": 100,
          "material": 3,
          "mode": 4
        }
      ]
    },
    {
      "name": "bawah",
      "primitives": [
        {
          "attributes": {
            "NORMAL": 107,
            "POSITION": 106,
            "TANGENT": 108,
            "TEXCOORD_0": 109
          },
          "indices": 105,
          "material": 4,
          "mode": 4
        }
      ]
    },
    {
      "name": "bawah",
      "primitives": [
        {
          "attributes": {
            "NORMAL": 112,
            "POSITION": 111,
            "TANGENT": 113,
            "TEXCOORD_0": 114
          },
          "indices": 110,
          "material": 7,
          "mode": 4
        }
      ]
    },
    {
      "name": "bawah",
      "primitives": [
        {
          "attributes": {
            "NORMAL": 117,
            "POSITION": 116,
            "TANGENT": 118,
            "TEXCOORD_0": 119
          },
          "indices": 115,
          "material": 8,
          "mode": 4
        }
      ]
    },
    {
      "name": "kap",
      "primitives": [
        {
          "attributes": {
            "NORMAL": 122,
            "POSITION": 121,
            "TANGENT": 123,
            "TEXCOORD_0": 124
          },
          "indices": 120,
          "material": 7,
          "mode": 4
        }
      ]
    },
    {
      "name": "kap",
      "primitives": [
        {
          "attributes": {
            "NORMAL": 127,
            "POSITION": 126,
            "TANGENT": 128,
            "TEXCOORD_0": 129
          },
          "indices": 125,
          "material": 8,
          "mode": 4
        }
      ]
    },
    {
      "name": "tiang",
      "primitives": [
        {
          "attributes": {
            "NORMAL": 132,
            "POSITION": 131,
            "TANGENT": 133,
            "TEXCOORD_0": 134
          },
          "indices": 130,
          "material": 2,
          "mode": 4
        }
      ]
    }
  ],
  "nodes": [
    {
      "children": [
        1,
        3,
        5,
        7,
        9,
        11,
        13,
        15,
        17,
        19,
        21,
        25,
        28,
        30,
        32,
        35,
        37,
        39,
        43,
        46
      ],
      "name": "RootNode",
      "scale": [
        0.00999999977648258,
        0.00999999977648258,
        0.00999999977648258
      ]
    },
    {
      "children": [
        2
      ],
      "name": "Circle.008",
      "rotation": [
        -0.707106828689575,
        0.0,
        0.0,
        0.707106709480286
      ],
      "scale": [
        100.0,
        100.0,
        100.0
      ],
      "translation": [
        98.3176345825195,
        91.4042205810547,
        12.4539432525635
      ]
    },
    {
      "mesh": 0,
      "name": "Circle.008"
    },
    {
      "children": [
        4
      ],
      "name": "Cylinder.013",
      "rotation": [
        -0.707106828689575,
        0.0,
        0.0,
        0.707106709480286
      ],
      "scale": [
        100.0,
        100.0,
        100.0
      ],
      "translation": [
        -1.90279791922876e-08,
        245.303009033203,
        51.5883941650391
      ]
    },
    {
      "mesh": 1,
      "name": "Cylinder.013"
    },
    {
      "children": [
        6
      ],
      "name": "regulator",
      "rotation": [
        -0.707106828689575,
        0.0,
        0.0,
        0.707106709480286
      ],
      "scale": [
        100.0,
        100.0,
        100.0
      ],
      "translation": [
        30.0323162078857,
        221.962600708008,
        9.96554279327393
      ]
    },
    {
      "mesh": 2,
      "name": "regulator"
    },
    {
      "children": [
        8
      ],
      "name": "Cylinder.010",
      "rotation": [
        1.37678782152761e-07,
        0.707106828689575,
        -0.707106709480286,
        -1.37678753731052e-07
      ],
      "scale": [
        100.0,
        100.0,
        100.0
      ],
      "translation": [
        -1.90279791922876e-08,
        245.303009033203,
        -31.1615371704102
      ]
    },
    {
      "mesh": 3,
      "name": "Cylinder.010"
    },
    {
      "children": [
        10
      ],
      "name": "Cylinder.012",
      "rotation": [
        -0.707106828689575,
        0.0,
        0.0,
        0.707106709480286
      ],
      "scale": [
        100.0,
        100.0,
        100.0
      ],
      "translation": [
        49.1939430236816,
        207.083801269531,
        -21.3659858703613
      ]
    },
    {
      "mesh": 4,
      "name": "Cylinder.012"
    },
    {
      "children": [
        12
      ],
      "name": "Cylinder.015",
      "rotation": [
        -0.707106828689575,
        0.0,
        0.0,
        0.707106709480286
      ],
      "scale": [
        100.0,
        100.0,
        100.0
      ],
      "translation": [
        20.3487567901611,
        245.302993774414,
        45.2106246948242
      ]
    },
    {
      "mesh": 5,
      "name": "Cylinder.015"
    },
    {
      "children": [
        14
      ],
      "name": "Plane.003",
      "rotation": [
        -0.707106828689575,
        0.0,
        0.0,
        0.707106709480286
      ],
      "scale": [
        100.0,
        100.0,
        100.0
      ],
      "translation": [
        3.38382305926643e-05,
        282.473388671875,
        -1.22383368015289
      ]
    },
    {
      "mesh": 6,
      "name": "Plane.003"
    },
    {
      "children": [
        16
      ],
      "name": "needle",
      "rotation": [
        -0.691513061523438,
        0.0,
        0.0,
        0.722363948822021
      ],
      "scale": [
        100.0,
        100.0,
        100.0
      ],
      "translation": [
        27.1087875366211,
        265.555969238281,
        9.95922946929932
      ]
    },
    {
      "mesh": 7,
      "name": "needle"
    },
    {
      "children": [
        18
      ],
      "name": "pintu",
      "rotation": [
        -0.707106828689575,
        0.0,
        0.0,
        0.707106709480286
      ],
      "scale": [
        100.0,
        100.0,
        100.0
      ],
      "translation": [
        104.365013122559,
        138.962539672852,
        93.2393417358398
      ]
    },
    {
      "mesh": 8,
      "name": "pintu"
    },
    {
      "children": [
        20
      ],
      "name": "needle.001",
      "rotation": [
        0.272504150867462,
        0.27250412106514,
        0.652488708496094,
        0.652488648891449
      ],
      "scale": [
        100.0,
        100.0,
        100.0
      ],
      "translation": [
        5.21540641784668e-06,
        0.0,
        -4.4703483581543e-06
      ]
    },
    {
      "mesh": 9,
      "name": "needle.001"
    },
    {
      "children": [
        22,
        23,
        24
      ],
      "name": "Cube.019",
      "rotation": [
        -0.707106828689575,
        0.0,
        0.0,
        0.707106709480286
      ],
      "scale": [
        100.0,
        100.0,
        100.0
      ],
      "translation": [
        3.10000018544088e-06,
        70.4762802124023,
        2.3283064365387e-06
      ]
    },
    {
      "mesh": 10,
      "name": "Cube.019"
    },
    {
      "mesh": 11,
      "name": "Cube.019"
    },
    {
      "mesh": 12,
      "name": "Cube.019"
    },
    {
      "children": [
        26,
        27
      ],
      "name": "BezierCurve",
      "rotation": [
        -0.707106828689575,
        0.0,
        0.0,
        0.707106709480286
      ],
      "scale": [
        100.0,
        100.0,
        100.0
      ],
      "translation": [
        101.401329040527,
        31.9859943389893,
        -36.1558036804199
      ]
    },
    {
      "mesh": 13,
      "name": "BezierCurve"
    },
    {
      "mesh": 14,
      "name": "BezierCurve"
    },
    {
      "children": [
        29
      ],
      "name": "tralis",
      "rotation": [
        1.37678782152761e-07,
        0.707106828689575,
        -0.707106709480286,
        -1.37678753731052e-07
      ],
      "scale": [
        -100.0,
        -100.0,
        -100.0
      ],
      "translation": [
        -9.76000118255615,
        214.235733032227,
        -43.8955307006836
      ]
    },
    {
      "mesh": 15,
      "name": "tralis"
    },
    {
      "children": [
        31
      ],
      "name": "Cube.046",
      "rotation": [
        -0.707106828689575,
        0.0,
        0.0,
        0.707106709480286
      ],
      "scale": [
        100.0,
        100.0,
        100.0
      ],
      "translation": [
        -1.90279791922876e-08,
        144.731018066406,
        1.89989805221558e-05
      ]
    },
    {
      "mesh": 16,
      "name": "Cube.046"
    },
    {
      "children": [
        33,
        34
      ],
      "name": "int",
      "rotation": [
        -0.707106828689575,
        0.0,
        0.0,
        0.707106709480286
      ],
      "scale": [
        100.0,
        100.0,
        100.0
      ],
      "translation": [
        26.0436954498291,
        256.414855957031,
        9.95923042297363
      ]
    },
    {
      "mesh": 17,
      "name": "int"
    },
    {
      "mesh": 18,
      "name": "int"
    },
    {
      "children": [
        36
      ],
      "name": "body",
      "rotation": [
        -0.707106828689575,
        0.0,
        0.0,
        0.707106709480286
      ],
      "scale": [
        100.0,
        100.0,
        100.0
      ],
      "translation": [
        1.26789052501408e-06,
        212.348937988281,
        5.68106770515442e-06
      ]
    },
    {
      "mesh": 19,
      "name": "body"
    },
    {
      "children": [
        38
      ],
      "name": "boiler",
      "rotation": [
        -0.707106828689575,
        0.0,
        0.0,
        0.707106709480286
      ],
      "scale": [
        100.0,
        100.0,
        100.0
      ],
      "translation": [
        -1.90279791922876e-08,
        176.500015258789,
        5.68106770515442e-06
      ]
    },
    {
      "mesh": 20,
      "name": "boiler"
    },
    {
      "children": [
        40,
        41,
        42
      ],
      "name": "bawah",
      "rotation": [
        -0.707106828689575,
        0.0,
        0.0,
        0.707106709480286
      ],
      "scale": [
        100.0,
        100.0,
        100.0
      ],
      "translation": [
        3.10000018544088e-06,
        70.4762802124023,
        0.0
      ]
    },
    {
      "mesh": 21,
      "name": "bawah"
    },
    {
      "mesh": 22,
      "name": "bawah"
    },
    {
      "mesh": 23,
      "name": "bawah"
    },
    {
      "children": [
        44,
        45
      ],
      "name": "kap",
      "rotation": [
        -0.707106828689575,
        0.0,
        0.0,
        0.707106709480286
      ],
      "scale": [
        100.0,
        100.0,
        100.0
      ],
      "translation": [
        42.1709175109863,
        29.1445140838623,
        181.358947753906
      ]
    },
    {
      "mesh": 24,
      "name": "kap"
    },
    {
      "mesh": 25,
      "name": "kap"
    },
    {
      "children": [
        47
      ],
      "name": "tiang",
      "rotation": [
        -0.707106828689575,
        0.0,
        0.0,
        0.707106709480286
      ],
      "scale": [
        100.0,
        100.0,
        100.0
      ],
      "translation": [
        36.5037612915039,
        144.535736083984,
        37.1550788879395
      ]
    },
    {
      "mesh": 26,
      "name": "tiang"
    }
  ],
  "samplers": [
    {
      "magFilter": 9729,
      "minFilter": 9985,
      "wrapS": 10497,
      "wrapT": 10497
    }
  ],
  "scene": 0,
  "scenes": [
    {
      "name": "Scene",
      "nodes": [
        0
      ]
    }
  ],
  "textures": [
    {
      "sampler": 0,
      "source": 0
    },
    {
      "sampler": 0,
      "source": 1
    },
    {
      "sampler": 0,
      "source": 2
    },
    {
      "sampler": 0,
      "source": 3
    },
    {
      "sampler": 0,
      "source": 4
    },
    {
      "sampler": 0,
      "source": 5
    },
    {
      "sampler": 0,
      "source": 6
    },
    {
      "sampler": 0,
      "source": 7
    },
    {
      "sampler": 0,
      "source": 8
    },
    {
      "sampler": 0,
      "source": 9
    },
    {
      "sampler": 0,
      "source": 10
    },
    {
      "sampler": 0,
      "source": 11
    },
    {
      "sampler": 0,
      "source": 12
    },
    {
      "sampler": 0,
      "source": 13
    },
    {
      "sampler": 0,
      "source": 14
    },
    {
      "sampler": 0,
      "source": 15
    },
    {
      "sampler": 0,
      "source": 16
    },
    {
      "sampler": 0,
      "source": 17
    },
    {
      "sampler": 0,
      "source": 18
    },
    {
      "sampler": 0,
      "source": 19
    },
    {
      "sampler": 0,
      "source": 20
    },
    {
      "sampler": 0,
      "source": 21
    },
    {
      "sampler": 0,
      "source": 22
    },
    {
      "sampler": 0,
      "source": 23
    },
    {
      "sampler": 0,
      "source": 24
    },
    {
      "sampler": 0,
      "source": 25
    },
    {
      "sampler": 0,
      "source": 26
    },
    {
      "sampler": 0,
      "source": 27
    },
    {
      "sampler": 0,
      "source": 28
    },
    {
      "sampler": 0,
      "source": 29
    },
    {
      "sampler": 0,
      "source": 30
    },
    {
      "sampler": 0,
      "source": 31
    },
    {
      "sampler": 0,
      "source": 32
    },
    {
      "sampler": 0,
      "source": 33
    },
    {
      "sampler": 0,
      "source": 34
    },
    {
      "sampler": 0,
      "source": 35
    }
  ]
}