{
  "accessors": [
    {
      "bufferView": 0,
      "componentType": 5125,
      "count": 3198,
      "type": "SCALAR"
    },
    {
      "bufferView": 1,
      "componentType": 5126,
      "count": 1366,
      "max": [
        0.0298500061035156,
        2.31478714942932,
        0.440493941307068
      ],
      "min": [
        -2.11715030670166,
        -0.915226757526398,
        -0.417615234851837
      ],
      "type": "VEC3"
    },
    {
      "bufferView": 2,
      "componentType": 5126,
      "count": 1366,
      "type": "VEC3"
    },
    {
      "bufferView": 3,
      "componentType": 5126,
      "count": 1366,
      "type": "VEC4"
    },
    {
      "bufferView": 4,
      "componentType": 5126,
      "count": 1366,
      "type": "VEC2"
    },
    {
      "bufferView": 5,
      "componentType": 5125,
      "count": 287790,
      "type": "SCALAR"
    },
    {
      "bufferView": 6,
      "componentType": 5126,
      "count": 64610,
      "max": [
        1.06650006771088,
        2.39999580383301,
        0.992009520530701
      ],
      "min": [
        -1.06650006771088,
        -2.39999556541443,
        -0.578621804714203
      ],
      "type": "VEC3"
    },
    {
      "bufferView": 7,
      "componentType": 5126,
      "count": 64610,
      "type": "VEC3"
    },
    {
      "bufferView": 8,
      "componentType": 5126,
      "count": 64610,
      "type": "VEC4"
    },
    {
      "bufferView": 9,
      "componentType": 5126,
      "count": 64610,
      "type": "VEC2"
    },
    {
      "bufferView": 10,
      "componentType": 5125,
      "count": 360,
      "type": "SCALAR"
    },
    {
      "bufferView": 11,
      "componentType": 5126,
      "count": 122,
      "max": [
        1.06650006771088,
        1.84373652935028,
        0.267247438430786
      ],
      "min": [
        -1.06650006771088,
        -1.84373652935028,
        0.267247378826141
      ],
      "type": "VEC3"
    },
    {
      "bufferView": 12,
      "componentType": 5126,
      "count": 122,
      "type": "VEC3"
    },
    {
      "bufferView": 13,
      "componentType": 5126,
      "count": 122,
      "type": "VEC4"
    },
    {
      "bufferView": 14,
      "componentType": 5126,
      "count": 122,
      "type": "VEC2"
    },
    {
      "bufferView": 15,
      "componentType": 5125,
      "count": 114,
      "type": "SCALAR"
    },
    {
      "bufferView": 16,
      "componentType": 5126,
      "count": 46,
      "max": [
        0.0999999642372131,
        1.84373641014099,
        0.257247388362885
      ],
      "min": [
        -0.100000016391277,
        -1.84373652935028,
        -0.578621804714203
      ],
      "type": "VEC3"
    },
    {
      "bufferView": 17,
      "componentType": 5126,
      "count": 46,
      "type": "VEC3"
    },
    {
      "bufferView": 18,
      "componentType": 5126,
      "count": 46,
      "type": "VEC4"
    },
    {
      "bufferView": 19,
      "componentType": 5126,
      "count": 46,
      "type": "VEC2"
    },
    {
      "bufferView": 20,
      "componentType": 5125,
      "count": 34614,
      "type": "SCALAR"
    },
    {
      "bufferView": 21,
      "componentType": 5126,
      "count": 8323,
      "max": [
        0.105048060417175,
        1.11778855323792,
        2.11158800125122
      ],
      "min": [
        -1.50816035270691,
        -1.66253638267517,
        -0.0422152280807495
      ],
      "type": "VEC3"
    },
    {
      "bufferView": 22,
      "componentType": 5126,
      "count": 8323,
      "type": "VEC3"
    },
    {
      "bufferView": 23,
      "componentType": 5126,
      "count": 8323,
      "type": "VEC4"
    },
    {
      "bufferView": 24,
      "componentType": 5126,
      "count": 8323,
      "type": "VEC2"
    },
    {
      "bufferView": 25,
      "componentType": 5125,
      "count": 4380,
      "type": "SCALAR"
    },
    {
      "bufferView": 26,
      "componentType": 5126,
      "count": 1057,
      "max": [
        -0.970349788665771,
        -1.57179522514343,
        1.44536852836609
      ],
      "min": [
        -1.37511003017426,
        -1.79289054870605,
        0.628524422645569
      ],
      "type": "VEC3"
    },
    {
      "bufferView": 27,
      "componentType": 5126,
      "count": 1057,
      "type": "VEC3"
    },
    {
      "bufferView": 28,
      "componentType": 5126,
      "count": 1057,
      "type": "VEC4"
    },
    {
      "bufferView": 29,
      "componentType": 5126,
      "count": 1057,
      "type": "VEC2"
    },
    {
      "bufferView": 30,
      "componentType": 5125,
      "count": 5868,
      "type": "SCALAR"
    },
    {
      "bufferView": 31,
      "componentType": 5126,
      "count": 2368,
      "max": [
        0.968900442123413,
        1.39377379417419,
        0.39088648557663
      ],
      "min": [
        -1.16410005092621,
        -0.175769656896591,
        -0.662746846675873
      ],
      "type": "VEC3"
    },
    {
      "bufferView": 32,
      "componentType": 5126,
      "count": 2368,
      "type": "VEC3"
    },
    {
      "bufferView": 33,
      "componentType": 5126,
      "count": 2368,
      "type": "VEC4"
    },
    {
      "bufferView": 34,
      "componentType": 5126,
      "count": 2368,
      "type": "VEC2"
    },
    {
      "bufferView": 35,
      "componentType": 5125,
      "count": 9762,
      "type": "SCALAR"
    },
    {
      "bufferView": 36,
      "componentType": 5126,
      "count": 3384,
      "max": [
        1.06650006771088,
        1.84373700618744,
        1.45993888378143
      ],
      "min": [
        -1.06650018692017,
        -1.8437362909317,
        1.22287809848785
      ],
      "type": "VEC3"
    },
    {
      "bufferView": 37,
      "componentType": 5126,
      "count": 3384,
      "type": "VEC3"
    },
    {
      "bufferView": 38,
      "componentType": 5126,
      "count": 3384,
      "type": "VEC4"
    },
    {
      "bufferView": 39,
      "componentType": 5126,
      "count": 3384,
      "type": "VEC2"
    },
    {
      "bufferView": 40,
      "componentType": 5125,
      "count": 948,
      "type": "SCALAR"
    },
    {
      "bufferView": 41,
      "componentType": 5126,
      "count": 344,
      "max": [
        0.0127170085906982,
        0.0629093497991562,
        0.154320478439331
      ],
      "min": [
        -0.0127169042825699,
        -0.0629093423485756,
        -5.36441802978516e-07
      ],
      "type": "VEC3"
    },
    {
      "bufferView": 42,
      "componentType": 5126,
      "count": 344,
      "type": "VEC3"
    },
    {
      "bufferView": 43,
      "componentType": 5126,
      "count": 344,
      "type": "VEC4"
    },
    {
      "bufferView": 44,
      "componentType": 5126,
      "count": 344,
      "type": "VEC2"
    },
    {
      "bufferView": 45,
      "componentType": 5125,
      "count": 75210,
      "type": "SCALAR"
    },
    {
      "bufferView": 46,
      "componentType": 5126,
      "count": 24626,
      "max": [
        0.796069502830505,
        1.24205732345581,
        0.468935012817383
      ],
      "min": [
        -0.779649257659912,
        -0.902466654777527,
        -2.16640567779541
      ],
      "type": "VEC3"
    },
    {
      "bufferView": 47,
      "componentType": 5126,
      "count": 24626,
      "type": "VEC3"
    },
    {
      "bufferView": 48,
      "componentType": 5126,
      "count": 24626,
      "type": "VEC4"
    },
    {
      "bufferView": 49,
      "componentType": 5126,
      "count": 24626,
      "type": "VEC2"
    },
    {
      "bufferView": 50,
      "componentType": 5125,
      "count": 41271,
      "type": "SCALAR"
    },
    {
      "bufferView": 51,
      "componentType": 5126,
      "count": 12307,
      "max": [
        1.08648777008057,
        2.00002527236938,
        0.735597908496857
      ],
      "min": [
        -1.08648788928986,
        -2.00002551078796,
        -1.17147922515869
      ],
      "type": "VEC3"
    },
    {
      "bufferView": 52,
      "componentType": 5126,
      "count": 12307,
      "type": "VEC3"
    },
    {
      "bufferView": 53,
      "componentType": 5126,
      "count": 12307,
      "type": "VEC4"
    },
    {
      "bufferView": 54,
      "componentType": 5126,
      "count": 12307,
      "type": "VEC2"
    },
    {
      "bufferView": 55,
      "componentType": 5125,
      "count": 17820,
      "type": "SCALAR"
    },
    {
      "bufferView": 56,
      "componentType": 5126,
      "count": 4754,
      "max": [
        0.430659294128418,
        1.4932576417923,
        1.28721868991852
      ],
      "min": [
        -0.41250005364418,
        -1.53807377815247,
        -0.873262584209442
      ],
      "type": "VEC3"
    },
    {
      "bufferView": 57,
      "componentType": 5126,
      "count": 4754,
      "type": "VEC3"
    },
    {
      "bufferView": 58,
      "componentType": 5126,
      "count": 4754,
      "type": "VEC4"
    },
    {
      "bufferView": 59,
      "componentType": 5126,
      "count": 4754,
      "type": "VEC2"
    },
    {
      "bufferView": 60,
      "componentType": 5125,
      "count": 10392,
      "type": "SCALAR"
    },
    {
      "bufferView": 61,
      "componentType": 5126,
      "count": 3621,
      "max": [
        0.977391183376312,
        1.85373651981354,
        -0.267240941524506
      ],
      "min": [
        -0.977391183376312,
        -1.85373651981354,
        -0.578621804714203
      ],
      "type": "VEC3"
    },
    {
      "bufferView": 62,
      "componentType": 5126,
      "count": 3621,
      "type": "VEC3"
    },
    {
      "bufferView": 63,
      "componentType": 5126,
      "count": 3621,
      "type": "VEC4"
    },
    {
      "bufferView": 64,
      "componentType": 5126,
      "count": 3621,
      "type": "VEC2"
    },
    {
      "bufferView": 65,
      "componentType": 5125,
      "count": 9456,
      "type": "SCALAR"
    },
    {
      "bufferView": 66,
      "componentType": 5126,
      "count": 3564,
      "max": [
        1.07650005817413,
        1.8207882642746,
        0.257247745990753
      ],
      "min": [
        -1.07650017738342,
        -1.8207882642746,
        -0.578621685504913
      ],
      "type": "VEC3"
    },
    {
      "bufferView": 67,
      "componentType": 5126,
      "count": 3564,
      "type": "VEC3"
    },
    {
      "bufferView": 68,
      "componentType": 5126,
      "count": 3564,
      "type": "VEC4"
    },
    {
      "bufferView": 69,
      "componentType": 5126,
      "count": 3564,
      "type": "VEC2"
    },
    {
      "bufferView": 70,
      "componentType": 5125,
      "count": 1440,
      "type": "SCALAR"
    },
    {
      "bufferView": 71,
      "componentType": 5126,
      "count": 504,
      "max": [
        0.00948834419250488,
        3.64821887016296,
        0.67056530714035
      ],
      "min": [
        -0.852906703948975,
        -0.0210402011871338,
        -0.115304231643677
      ],
      "type": "VEC3"
    },
    {
      "bufferView": 72,
      "componentType": 5126,
      "count": 504,
      "type": "VEC3"
    },
    {
      "bufferView": 73,
      "componentType": 5126,
      "count": 504,
      "type": "VEC4"
    },
    {
      "bufferView": 74,
      "componentType": 5126,
      "count": 504,
      "type": "VEC2"
    },
    {
      "bufferView": 75,
      "componentType": 5125,
      "count": 17088,
      "type": "SCALAR"
    },
    {
      "bufferView": 76,
      "componentType": 5126,
      "count": 6258,
      "max": [
        0.104940414428711,
        3.67803454399109,
        0.700564920902252
      ],
      "min": [
        -0.948358774185181,
        -0.0508558750152588,
        -0.115304231643677
      ],
      "type": "VEC3"
    },
    {
      "bufferView": 77,
      "componentType": 5126,
      "count": 6258,
      "type": "VEC3"
    },
    {
      "bufferView": 78,
      "componentType": 5126,
      "count": 6258,
      "type": "VEC4"
    },
    {
      "bufferView": 79,
      "componentType": 5126,
      "count": 6258,
      "type": "VEC2"
    },
    {
      "bufferView": 80,
      "componentType": 5125,
      "count": 15900,
      "type": "SCALAR"
    },
    {
      "bufferView": 81,
      "componentType": 5126,
      "count": 4853,
      "max": [
        0.763296127319336,
        2.17291402816772,
        1.30590438842773
      ],
      "min": [
        -1.49337148666382,
        -1.42981266975403,
        -0.473347246646881
      ],
      "type": "VEC3"
    },
    {
      "bufferView": 82,
      "componentType": 5126,
      "count": 4853,
      "type": "VEC3"
    },
    {
      "bufferView": 83,
      "componentType": 5126,
      "count": 4853,
      "type": "VEC4"
    },
    {
      "bufferView": 84,
      "componentType": 5126,
      "count": 4853,
      "type": "VEC2"
    }
  ],
  "asset": {
    "generator": "Adobe Substance 3D Painter 10.1.2",
    "version": "2.0"
  },
  "bufferViews": [
    {
      "buffer": 0,
      "byteLength": 12792,
      "target": 34963
    },
    {
      "buffer": 0,
      "byteLength": 16392,
      "byteOffset": 12792,
      "target": 34962
    },
    {
      "buffer": 0,
      "byteLength": 16392,
      "byteOffset": 29184,
      "target": 34962
    },
    {
      "buffer": 0,
      "byteLength": 21856,
      "byteOffset": 45576,
      "target": 34962
    },
    {
      "buffer": 0,
      "byteLength": 10928,
      "byteOffset": 67432,
      "target": 34962
    },
    {
      "buffer": 0,
      "byteLength": 1151160,
      "byteOffset": 78360,
      "target": 34963
    },
    {
      "buffer": 0,
      "byteLength": 775320,
      "byteOffset": 1229520,
      "target": 34962
    },
    {
      "buffer": 0,
      "byteLength": 775320,
      "byteOffset": 2004840,
      "target": 34962
    },
    {
      "buffer": 0,
      "byteLength": 1033760,
      "byteOffset": 2780160,
      "target": 34962
    },
    {
      "buffer": 0,
      "byteLength": 516880,
      "byteOffset": 3813920,
      "target": 34962
    },
    {
      "buffer": 0,
      "byteLength": 1440,
      "byteOffset": 4330800,
      "target": 34963
    },
    {
      "buffer": 0,
      "byteLength": 1464,
      "byteOffset": 4332240,
      "target": 34962
    },
    {
      "buffer": 0,
      "byteLength": 1464,
      "byteOffset": 4333704,
      "target": 34962
    },
    {
      "buffer": 0,
      "byteLength": 1952,
      "byteOffset": 4335168,
      "target": 34962
    },
    {
      "buffer": 0,
      "byteLength": 976,
      "byteOffset": 4337120,
      "target": 34962
    },
    {
      "buffer": 0,
      "byteLength": 456,
      "byteOffset": 4338096,
      "target": 34963
    },
    {
      "buffer": 0,
      "byteLength": 552,
      "byteOffset": 4338552,
      "target": 34962
    },
    {
      "buffer": 0,
      "byteLength": 552,
      "byteOffset": 4339104,
      "target": 34962
    },
    {
      "buffer": 0,
      "byteLength": 736,
      "byteOffset": 4339656,
      "target": 34962
    },
    {
      "buffer": 0,
      "byteLength": 368,
      "byteOffset": 4340392,
      "target": 34962
    },
    {
      "buffer": 0,
      "byteLength": 138456,
      "byteOffset": 4340760,
      "target": 34963
    },
    {
      "buffer": 0,
      "byteLength": 99876,
      "byteOffset": 4479216,
      "target": 34962
    },
    {
      "buffer": 0,
      "byteLength": 99876,
      "byteOffset": 4579092,
      "target": 34962
    },
    {
      "buffer": 0,
      "byteLength": 133168,
      "byteOffset": 4678968,
      "target": 34962
    },
    {
      "buffer": 0,
      "byteLength": 66584,
      "byteOffset": 4812136,
      "target": 34962
    },
    {
      "buffer": 0,
      "byteLength": 17520,
      "byteOffset": 4878720,
      "target": 34963
    },
    {
      "buffer": 0,
      "byteLength": 12684,
      "byteOffset": 4896240,
      "target": 34962
    },
    {
      "buffer": 0,
      "byteLength": 12684,
      "byteOffset": 4908924,
      "target": 34962
    },
    {
      "buffer": 0,
      "byteLength": 16912,
      "byteOffset": 4921608,
      "target": 34962
    },
    {
      "buffer": 0,
      "byteLength": 8456,
      "byteOffset": 4938520,
      "target": 34962
    },
    {
      "buffer": 0,
      "byteLength": 23472,
      "byteOffset": 4946976,
      "target": 34963
    },
    {
      "buffer": 0,
      "byteLength": 28416,
      "byteOffset": 4970448,
      "target": 34962
    },
    {
      "buffer": 0,
      "byteLength": 28416,
      "byteOffset": 4998864,
      "target": 34962
    },
    {
      "buffer": 0,
      "byteLength": 37888,
      "byteOffset": 5027280,
      "target": 34962
    },
    {
      "buffer": 0,
      "byteLength": 18944,
      "byteOffset": 5065168,
      "target": 34962
    },
    {
      "buffer": 0,
      "byteLength": 39048,
      "byteOffset": 5084112,
      "target": 34963
    },
    {
      "buffer": 0,
      "byteLength": 40608,
      "byteOffset": 5123160,
      "target": 34962
    },
    {
      "buffer": 0,
      "byteLength": 40608,
      "byteOffset": 5163768,
      "target": 34962
    },
    {
      "buffer": 0,
      "byteLength": 54144,
      "byteOffset": 5204376,
      "target": 34962
    },
    {
      "buffer": 0,
      "byteLength": 27072,
      "byteOffset": 5258520,
      "target": 34962
    },
    {
      "buffer": 0,
      "byteLength": 3792,
      "byteOffset": 5285592,
      "target": 34963
    },
    {
      "buffer": 0,
      "byteLength": 4128,
      "byteOffset": 5289384,
      "target": 34962
    },
    {
      "buffer": 0,
      "byteLength": 4128,
      "byteOffset": 5293512,
      "target": 34962
    },
    {
      "buffer": 0,
      "byteLength": 5504,
      "byteOffset": 5297640,
      "target": 34962
    },
    {
      "buffer": 0,
      "byteLength": 2752,
      "byteOffset": 5303144,
      "target": 34962
    },
    {
      "buffer": 0,
      "byteLength": 300840,
      "byteOffset": 5305896,
      "target": 34963
    },
    {
      "buffer": 0,
      "byteLength": 295512,
      "byteOffset": 5606736,
      "target": 34962
    },
    {
      "buffer": 0,
      "byteLength": 295512,
      "byteOffset": 5902248,
      "target": 34962
    },
    {
      "buffer": 0,
      "byteLength": 394016,
      "byteOffset": 6197760,
      "target": 34962
    },
    {
      "buffer": 0,
      "byteLength": 197008,
      "byteOffset": 6591776,
      "target": 34962
    },
    {
      "buffer": 0,
      "byteLength": 165084,
      "byteOffset": 6788784,
      "target": 34963
    },
    {
      "buffer": 0,
      "byteLength": 147684,
      "byteOffset": 6953868,
      "target": 34962
    },
    {
      "buffer": 0,
      "byteLength": 147684,
      "byteOffset": 7101552,
      "target": 34962
    },
    {
      "buffer": 0,
      "byteLength": 196912,
      "byteOffset": 7249236,
      "target": 34962
    },
    {
      "buffer": 0,
      "byteLength": 98456,
      "byteOffset": 7446148,
      "target": 34962
    },
    {
      "buffer": 0,
      "byteLength": 71280,
      "byteOffset": 7544604,
      "target": 34963
    },
    {
      "buffer": 0,
      "byteLength": 57048,
      "byteOffset": 7615884,
      "target": 34962
    },
    {
      "buffer": 0,
      "byteLength": 57048,
      "byteOffset": 7672932,
      "target": 34962
    },
    {
      "buffer": 0,
      "byteLength": 76064,
      "byteOffset": 7729980,
      "target": 34962
    },
    {
      "buffer": 0,
      "byteLength": 38032,
      "byteOffset": 7806044,
      "target": 34962
    },
    {
      "buffer": 0,
      "byteLength": 41568,
      "byteOffset": 7844076,
      "target": 34963
    },
    {
      "buffer": 0,
      "byteLength": 43452,
      "byteOffset": 7885644,
      "target": 34962
    },
    {
      "buffer": 0,
      "byteLength": 43452,
      "byteOffset": 7929096,
      "target": 34962
    },
    {
      "buffer": 0,
      "byteLength": 57936,
      "byteOffset": 7972548,
      "target": 34962
    },
    {
      "buffer": 0,
      "byteLength": 28968,
      "byteOffset": 8030484,
      "target": 34962
    },
    {
      "buffer": 0,
      "byteLength": 37824,
      "byteOffset": 8059452,
      "target": 34963
    },
    {
      "buffer": 0,
      "byteLength": 42768,
      "byteOffset": 8097276,
      "target": 34962
    },
    {
      "buffer": 0,
      "byteLength": 42768,
      "byteOffset": 8140044,
      "target": 34962
    },
    {
      "buffer": 0,
      "byteLength": 57024,
      "byteOffset": 8182812,
      "target": 34962
    },
    {
      "buffer": 0,
      "byteLength": 28512,
      "byteOffset": 8239836,
      "target": 34962
    },
    {
      "buffer": 0,
      "byteLength": 5760,
      "byteOffset": 8268348,
      "target": 34963
    },
    {
      "buffer": 0,
      "byteLength": 6048,
      "byteOffset": 8274108,
      "target": 34962
    },
    {
      "buffer": 0,
      "byteLength": 6048,
      "byteOffset": 8280156,
      "target": 34962
    },
    {
      "buffer": 0,
      "byteLength": 8064,
      "byteOffset": 8286204,
      "target": 34962
    },
    {
      "buffer": 0,
      "byteLength": 4032,
      "byteOffset": 8294268,
      "target": 34962
    },
    {
      "buffer": 0,
      "byteLength": 68352,
      "byteOffset": 8298300,
      "target": 34963
    },
    {
      "buffer": 0,
      "byteLength": 75096,
      "byteOffset": 8366652,
      "target": 34962
    },
    {
      "buffer": 0,
      "byteLength": 75096,
      "byteOffset": 8441748,
      "target": 34962
    },
    {
      "buffer": 0,
      "byteLength": 100128,
      "byteOffset": 8516844,
      "target": 34962
    },
    {
      "buffer": 0,
      "byteLength": 50064,
      "byteOffset": 8616972,
      "target": 34962
    },
    {
      "buffer": 0,
      "byteLength": 63600,
      "byteOffset": 8667036,
      "target": 34963
    },
    {
      "buffer": 0,
      "byteLength": 58236,
      "byteOffset": 8730636,
      "target": 34962
    },
    {
      "buffer": 0,
      "byteLength": 58236,
      "byteOffset": 8788872,
      "target": 34962
    },
    {
      "buffer": 0,
      "byteLength": 77648,
      "byteOffset": 8847108,
      "target": 34962
    },
    {
      "buffer": 0,
      "byteLength": 38824,
      "byteOffset": 8924756,
      "target": 34962
    }
  ],
  "buffers": [
    {
      "byteLength": 8963580,
      "uri": "1.bin"
    }
  ],
  "images": [
    {
      "uri": "alas_baseColor.png"
    },
    {
      "uri": "alas_occlusionRoughnessMetallic.png"
    },
    {
      "uri": "alas_normal.png"
    },
    {
      "uri": "atap_baseColor.png"
    },
    {
      "uri": "atap_occlusionRoughnessMetallic.png"
    },
    {
      "uri": "atap_normal.png"
    },
    {
      "uri": "bdy atas_baseColor.png"
    },
    {
      "uri": "bdy atas_occlusionRoughnessMetallic.png"
    },
    {
      "uri": "bdy atas_normal.png"
    },
    {
      "uri": "boiler_baseColor.png"
    },
    {
      "uri": "boiler_occlusionRoughnessMetallic.png"
    },
    {
      "uri": "boiler_normal.png"
    },
    {
      "uri": "bwh_baseColor.png"
    },
    {
      "uri": "bwh_occlusionRoughnessMetallic.png"
    },
    {
      "uri": "bwh_normal.png"
    },
    {
      "uri": "duah_baseColor.png"
    },
    {
      "uri": "duah_occlusionRoughnessMetallic.png"
    },
    {
      "uri": "duah_normal.png"
    },
    {
      "uri": "emas_baseColor.png"
    },
    {
      "uri": "emas_occlusionRoughnessMetallic.png"
    },
    {
      "uri": "emas_normal.png"
    },
    {
      "uri": "htm bwh_baseColor.png"
    },
    {
      "uri": "htm bwh_occlusionRoughnessMetallic.png"
    },
    {
      "uri": "htm bwh_normal.png"
    },
    {
      "uri": "merah_baseColor.png"
    },
    {
      "uri": "merah_occlusionRoughnessMetallic.png"
    },
    {
      "uri": "merah_normal.png"
    },
    {
      "uri": "merah2_baseColor.png"
    },
    {
      "uri": "merah2_occlusionRoughnessMetallic.png"
    },
    {
      "uri": "merah2_normal.png"
    },
    {
      "uri": "tralis_baseColor.png"
    },
    {
      "uri": "tralis_occlusionRoughnessMetallic.png"
    },
    {
      "uri": "tralis_normal.png"
    }
  ],
  "materials": [
    {
      "alphaMode": "OPAQUE",
      "name": "alas",
      "normalTexture": {
        "index": 2
      },
      "occlusionTexture": {
        "index": 1
      },
      "pbrMetallicRoughness": {
        "baseColorTexture": {
          "index": 0
        },
        "metallicRoughnessTexture": {
          "index": 1
        }
      }
    },
    {
      "alphaMode": "OPAQUE",
      "name": "atap",
      "normalTexture": {
        "index": 5
      },
      "occlusionTexture": {
        "index": 4
      },
      "pbrMetallicRoughness": {
        "baseColorTexture": {
          "index": 3
        },
        "metallicRoughnessTexture": {
          "index": 4
        }
      }
    },
    {
      "alphaMode": "OPAQUE",
      "name": "bdy atas",
      "normalTexture": {
        "index": 8
      },
      "occlusionTexture": {
        "index": 7
      },
      "pbrMetallicRoughness": {
        "baseColorTexture": {
          "index": 6
        },
        "metallicRoughnessTexture": {
          "index": 7
        }
      }
    },
    {
      "alphaMode": "OPAQUE",
      "name": "boiler",
      "normalTexture": {
        "index": 11
      },
      "occlusionTexture": {
        "index": 10
      },
      "pbrMetallicRoughness": {
        "baseColorTexture": {
          "index": 9
        },
        "metallicRoughnessTexture": {
          "index": 10
        }
      }
    },
    {
      "alphaMode": "OPAQUE",
      "name": "bwh",
      "normalTexture": {
        "index": 14
      },
      "occlusionTexture": {
        "index": 13
      },
      "pbrMetallicRoughness": {
        "baseColorTexture": {
          "index": 12
        },
        "metallicRoughnessTexture": {
          "index": 13
        }
      }
    },
    {
      "alphaMode": "OPAQUE",
      "name": "duah",
      "normalTexture": {
        "index": 17
      },
      "occlusionTexture": {
        "index": 16
      },
      "pbrMetallicRoughness": {
        "baseColorTexture": {
          "index": 15
        },
        "metallicRoughnessTexture": {
          "index": 16
        }
      }
    },
    {
      "alphaMode": "OPAQUE",
      "name": "emas",
      "normalTexture": {
        "index": 20
      },
      "occlusionTexture": {
        "index": 19
      },
      "pbrMetallicRoughness": {
        "baseColorTexture": {
          "index": 18
        },
        "metallicRoughnessTexture": {
          "index": 19
        }
      }
    },
    {
      "alphaMode": "OPAQUE",
      "name": "htm bwh",
      "normalTexture": {
        "index": 23
      },
      "occlusionTexture": {
        "index": 22
      },
      "pbrMetallicRoughness": {
        "baseColorTexture": {
          "index": 21
        },
        "metallicRoughnessTexture": {
          "index": 22
        }
      }
    },
    {
      "alphaMode": "OPAQUE",
      "name": "merah",
      "normalTexture": {
        "index": 26
      },
      "occlusionTexture": {
        "index": 25
      },
      "pbrMetallicRoughness": {
        "baseColorTexture": {
          "index": 24
        },
        "metallicRoughnessTexture": {
          "index": 25
        }
      }
    },
    {
      "alphaMode": "OPAQUE",
      "name": "merah2",
      "normalTexture": {
        "index": 29
      },
      "occlusionTexture": {
        "index": 28
      },
      "pbrMetallicRoughness": {
        "baseColorTexture": {
          "index": 27
        },
        "metallicRoughnessTexture": {
          "index": 28
        }
      }
    },
    {
      "alphaMode": "OPAQUE",
      "name": "tralis",
      "normalTexture": {
        "index": 32
      },
      "occlusionTexture": {
        "index": 31
      },
      "pbrMetallicRoughness": {
        "baseColorTexture": {
          "index": 30
        },
        "metallicRoughnessTexture": {
          "index": 31
        }
      }
    }
  ],
  "meshes": [
    {
      "name": "pintu",
      "primitives": [
        {
          "attributes": {
            "NORMAL": 2,
            "POSITION": 1,
            "TANGENT": 3,
            "TEXCOORD_0": 4
          },
          "indices": 0,
          "material": 2,
          "mode": 4
        }
      ]
    },
    {
      "name": "Cube.019",
      "primitives": [
        {
          "attributes": {
            "NORMAL": 7,
            "POSITION": 6,
            "TANGENT": 8,
            "TEXCOORD_0": 9
          },
          "indices": 5,
          "material": 4,
          "mode": 4
        }
      ]
    },
    {
      "name": "Cube.019",
      "primitives": [
        {
          "attributes": {
            "NORMAL": 12,
            "POSITION": 11,
            "TANGENT": 13,
            "TEXCOORD_0": 14
          },
          "indices": 10,
          "material": 0,
          "mode": 4
        }
      ]
    },
    {
      "name": "Cube.019",
      "primitives": [
        {
          "attributes": {
            "NORMAL": 17,
            "POSITION": 16,
            "TANGENT": 18,
            "TEXCOORD_0": 19
          },
          "indices": 15,
          "material": 9,
          "mode": 4
        }
      ]
    },
    {
      "name": "BezierCurve",
      "primitives": [
        {
          "attributes": {
            "NORMAL": 22,
            "POSITION": 21,
            "TANGENT": 23,
            "TEXCOORD_0": 24
          },
          "indices": 20,
          "material": 6,
          "mode": 4
        }
      ]
    },
    {
      "name": "BezierCurve",
      "primitives": [
        {
          "attributes": {
            "NORMAL": 27,
            "POSITION": 26,
            "TANGENT": 28,
            "TEXCOORD_0": 29
          },
          "indices": 25,
          "material": 3,
          "mode": 4
        }
      ]
    },
    {
      "name": "tralis",
      "primitives": [
        {
          "attributes": {
            "NORMAL": 32,
            "POSITION": 31,
            "TANGENT": 33,
            "TEXCOORD_0": 34
          },
          "indices": 30,
          "material": 10,
          "mode": 4
        }
      ]
    },
    {
      "name": "Cube.046",
      "primitives": [
        {
          "attributes": {
            "NORMAL": 37,
            "POSITION": 36,
            "TANGENT": 38,
            "TEXCOORD_0": 39
          },
          "indices": 35,
          "material": 1,
          "mode": 4
        }
      ]
    },
    {
      "name": "int",
      "primitives": [
        {
          "attributes": {
            "NORMAL": 42,
            "POSITION": 41,
            "TANGENT": 43,
            "TEXCOORD_0": 44
          },
          "indices": 40,
          "material": 6,
          "mode": 4
        }
      ]
    },
    {
      "name": "int",
      "primitives": [
        {
          "attributes": {
            "NORMAL": 47,
            "POSITION": 46,
            "TANGENT": 48,
            "TEXCOORD_0": 49
          },
          "indices": 45,
          "material": 5,
          "mode": 4
        }
      ]
    },
    {
      "name": "body",
      "primitives": [
        {
          "attributes": {
            "NORMAL": 52,
            "POSITION": 51,
            "TANGENT": 53,
            "TEXCOORD_0": 54
          },
          "indices": 50,
          "material": 2,
          "mode": 4
        }
      ]
    },
    {
      "name": "boiler",
      "primitives": [
        {
          "attributes": {
            "NORMAL": 57,
            "POSITION": 56,
            "TANGENT": 58,
            "TEXCOORD_0": 59
          },
          "indices": 55,
          "material": 3,
          "mode": 4
        }
      ]
    },
    {
      "name": "bawah",
      "primitives": [
        {
          "attributes": {
            "NORMAL": 62,
            "POSITION": 61,
            "TANGENT": 63,
            "TEXCOORD_0": 64
          },
          "indices": 60,
          "material": 4,
          "mode": 4
        }
      ]
    },
    {
      "name": "bawah",
      "primitives": [
        {
          "attributes": {
            "NORMAL": 67,
            "POSITION": 66,
            "TANGENT": 68,
            "TEXCOORD_0": 69
          },
          "indices": 65,
          "material": 7,
          "mode": 4
        }
      ]
    },
    {
      "name": "kap",
      "primitives": [
        {
          "attributes": {
            "NORMAL": 72,
            "POSITION": 71,
            "TANGENT": 73,
            "TEXCOORD_0": 74
          },
          "indices": 70,
          "material": 7,
          "mode": 4
        }
      ]
    },
    {
      "name": "kap",
      "primitives": [
        {
          "attributes": {
            "NORMAL": 77,
            "POSITION": 76,
            "TANGENT": 78,
            "TEXCOORD_0": 79
          },
          "indices": 75,
          "material": 8,
          "mode": 4
        }
      ]
    },
    {
      "name": "tiang",
      "primitives": [
        {
          "attributes": {
            "NORMAL": 82,
            "POSITION": 81,
            "TANGENT": 83,
            "TEXCOORD_0": 84
          },
          "indices": 80,
          "material": 2,
          "mode": 4
        }
      ]
    }
  ],
  "nodes": [
    {
      "children": [
        1,
        3,
        7,
        10,
        12,
        14,
        17,
        19,
        21,
        24,
        27
      ],
      "name": "RootNode",
      "scale": [
        0.00999999977648258,
        0.00999999977648258,
        0.00999999977648258
      ]
    },
    {
      "children": [
        2
      ],
      "name": "pintu",
      "rotation": [
        -0.707106828689575,
        0.0,
        0.0,
        0.707106709480286
      ],
      "scale": [
        100.0,
        100.0,
        100.0
      ],
      "translation": [
        104.365013122559,
        138.962539672852,
        93.2393417358398
      ]
    },
    {
      "mesh": 0,
      "name": "pintu"
    },
    {
      "children": [
        4,
        5,
        6
      ],
      "name": "Cube.019",
      "rotation": [
        -0.707106828689575,
        0.0,
        0.0,
        0.707106709480286
      ],
      "scale": [
        100.0,
        100.0,
        100.0
      ],
      "translation": [
        3.10000018544088e-06,
        70.4762802124023,
        2.3283064365387e-06
      ]
    },
    {
      "mesh": 1,
      "name": "Cube.019"
    },
    {
      "mesh": 2,
      "name": "Cube.019"
    },
    {
      "mesh": 3,
      "name": "Cube.019"
    },
    {
      "children": [
        8,
        9
      ],
      "name": "BezierCurve",
      "rotation": [
        -0.707106828689575,
        0.0,
        0.0,
        0.707106709480286
      ],
      "scale": [
        100.0,
        100.0,
        100.0
      ],
      "translation": [
        101.401329040527,
        31.9859943389893,
        -36.1558036804199
      ]
    },
    {
      "mesh": 4,
      "name": "BezierCurve"
    },
    {
      "mesh": 5,
      "name": "BezierCurve"
    },
    {
      "children": [
        11
      ],
      "name": "tralis",
      "rotation": [
        1.37678782152761e-07,
        0.707106828689575,
        -0.707106709480286,
        -1.37678753731052e-07
      ],
      "scale": [
        100.0,
        100.0,
        100.0
      ],
      "translation": [
        -9.76000118255615,
        214.235733032227,
        -43.8955307006836
      ]
    },
    {
      "mesh": 6,
      "name": "tralis"
    },
    {
      "children": [
        13
      ],
      "name": "Cube.046",
      "rotation": [
        -0.707106828689575,
        0.0,
        0.0,
        0.707106709480286
      ],
      "scale": [
        100.0,
        100.0,
        100.0
      ],
      "translation": [
        -1.90279791922876e-08,
        144.731018066406,
        1.89989805221558e-05
      ]
    },
    {
      "mesh": 7,
      "name": "Cube.046"
    },
    {
      "children": [
        15,
        16
      ],
      "name": "int",
      "rotation": [
        -0.707106828689575,
        0.0,
        0.0,
        0.707106709480286
      ],
      "scale": [
        100.0,
        100.0,
        100.0
      ],
      "translation": [
        26.0436954498291,
        256.414855957031,
        9.95923042297363
      ]
    },
    {
      "mesh": 8,
      "name": "int"
    },
    {
      "mesh": 9,
      "name": "int"
    },
    {
      "children": [
        18
      ],
      "name": "body",
      "rotation": [
        -0.707106828689575,
        0.0,
        0.0,
        0.707106709480286
      ],
      "scale": [
        100.0,
        100.0,
        100.0
      ],
      "translation": [
        1.26789052501408e-06,
        212.348937988281,
        5.68106770515442e-06
      ]
    },
    {
      "mesh": 10,
      "name": "body"
    },
    {
      "children": [
        20
      ],
      "name": "boiler",
      "rotation": [
        -0.707106828689575,
        0.0,
        0.0,
        0.707106709480286
      ],
      "scale": [
        100.0,
        100.0,
        100.0
      ],
      "translation": [
        -1.90279791922876e-08,
        176.500015258789,
        5.68106770515442e-06
      ]
    },
    {
      "mesh": 11,
      "name": "boiler"
    },
    {
      "children": [
        22,
        23
      ],
      "name": "bawah",
      "rotation": [
        -0.707106828689575,
        0.0,
        0.0,
        0.707106709480286
      ],
      "scale": [
        100.0,
        100.0,
        100.0
      ],
      "translation": [
        3.10000018544088e-06,
        70.4762802124023,
        0.0
      ]
    },
    {
      "mesh": 12,
      "name": "bawah"
    },
    {
      "mesh": 13,
      "name": "bawah"
    },
    {
      "children": [
        25,
        26
      ],
      "name": "kap",
      "rotation": [
        -0.707106828689575,
        0.0,
        0.0,
        0.707106709480286
      ],
      "scale": [
        100.0,
        100.0,
        100.0
      ],
      "translation": [
        42.1709175109863,
        29.1445140838623,
        181.358947753906
      ]
    },
    {
      "mesh": 14,
      "name": "kap"
    },
    {
      "mesh": 15,
      "name": "kap"
    },
    {
      "children": [
        28
      ],
      "name": "tiang",
      "rotation": [
        -0.707106828689575,
        0.0,
        0.0,
        0.707106709480286
      ],
      "scale": [
        100.0,
        100.0,
        100.0
      ],
      "translation": [
        36.5037612915039,
        144.535736083984,
        37.1550788879395
      ]
    },
    {
      "mesh": 16,
      "name": "tiang"
    }
  ],
  "samplers": [
    {
      "magFilter": 9729,
      "minFilter": 9985,
      "wrapS": 10497,
      "wrapT": 10497
    }
  ],
  "scene": 0,
  "scenes": [
    {
      "name": "Scene",
      "nodes": [
        0
      ]
    }
  ],
  "textures": [
    {
      "sampler": 0,
      "source": 0
    },
    {
      "sampler": 0,
      "source": 1
    },
    {
      "sampler": 0,
      "source": 2
    },
    {
      "sampler": 0,
      "source": 3
    },
    {
      "sampler": 0,
      "source": 4
    },
    {
      "sampler": 0,
      "source": 5
    },
    {
      "sampler": 0,
      "source": 6
    },
    {
      "sampler": 0,
      "source": 7
    },
    {
      "sampler": 0,
      "source": 8
    },
    {
      "sampler": 0,
      "source": 9
    },
    {
      "sampler": 0,
      "source": 10
    },
    {
      "sampler": 0,
      "source": 11
    },
    {
      "sampler": 0,
      "source": 12
    },
    {
      "sampler": 0,
      "source": 13
    },
    {
      "sampler": 0,
      "source": 14
    },
    {
      "sampler": 0,
      "source": 15
    },
    {
      "sampler": 0,
      "source": 16
    },
    {
      "sampler": 0,
      "source": 17
    },
    {
      "sampler": 0,
      "source": 18
    },
    {
      "sampler": 0,
      "source": 19
    },
    {
      "sampler": 0,
      "source": 20
    },
    {
      "sampler": 0,
      "source": 21
    },
    {
      "sampler": 0,
      "source": 22
    },
    {
      "sampler": 0,
      "source": 23
    },
    {
      "sampler": 0,
      "source": 24
    },
    {
      "sampler": 0,
      "source": 25
    },
    {
      "sampler": 0,
      "source": 26
    },
    {
      "sampler": 0,
      "source": 27
    },
    {
      "sampler": 0,
      "source": 28
    },
    {
      "sampler": 0,
      "source": 29
    },
    {
      "sampler": 0,
      "source": 30
    },
    {
      "sampler": 0,
      "source": 31
    },
    {
      "sampler": 0,
      "source": 32
    }
  ]
}